<?xml version="1.0" encoding="UTF-8"?>
<svg version="1.1" viewBox="0 0 1600 960" width="1280" height="1280" xmlns="http://www.w3.org/2000/svg">
<path transform="translate(0)" d="m0 0h1600v960h-1600z" fill="#FDD777"/>
<path transform="translate(1259,155)" d="m0 0h17l18 3 5 3 3 5 2 8v5l11 3 11 8 7 10 6 7 6 3 2 6 13 1 7-2 6-4 6-8 15 1 6 3 5 1 5-5 8-7 9-3h8l24 6 6 4h2l5-5 5-1 5 1 7-4h15l8 6 9-3 13-9 6-3 5-8 5-1 31 3 10 4 6 7h3v770h-1600v-316h3l1 7 6 1 2-4 3-3 1 9 4-1 2-6 3 2v4h3v-14h2l3 7h3l1 2h2l2-4h2l1 7 3-3 1-2h2l-1 7 3-2 4-8 3-3 2 1-4 7-1 6h7v-8l2-10v-28l-1-7v-12l6-11 1-4v-14l-2-14-1-13-2-1-2 21-1 5h-1v-26l2-9 6-11 9-7 9-4 16-5 9-6 13-11 13-8 7-6 5-8 3-15 2-23 1-20 2-13-6-8-4-10v-3l5 1 8 7 6 3-4-9-1-3 3-2 2 2 3 10 2-2-2-11h4l2 14 3-1 3-7 3-5 3 1-1 13-3 7 8 16 1 7-1 1-7-1-9-4h-2v2h-3l2 25 3 1h-3l2 22v26l-2 14-5 12v10l1 4v7l-4 13-5 15-4 22-4 35-1 32 3 6 1 10 4-5 1-13 2-2h3l2 6 2-3 1-2 3 1 2 7h1l2-11 4-2 1 1v6l-2 7 4-1 1-5 4-6 1 3-2 4 1 5 1 3h2l3-9 2 1 1 5 4-2h6v2l5-2 6-8 3-1-5-40-4-15-4-13v-8l1-6-5-16-1-10 1-26 2-23-9 3h-6l1-5 4-11-2-14h4l2 4h2l2-6h2l-1 7 7-7 1 3-3 6 5-3 5-4h2l-1 5-4 8-1 1 1 11 2 32 3 10 4 6 3 2v2l4 1 9 6v2l4 2 8 6 16 5 6 4 5 6 4 11v8l-2 4-2-12-2 18v14l5 11-2 25-1 4h5v6h9l6-6h2l-4 8h4l1-2h2v4l4-1 3-4 1 1v6l3-3 2-6 4 2 4 1 3-6h1v7h2l2-5 5-8 1 2-3 11 6 2 2-9h2l2 6 4 1 3-1 1-2v3l4-1 7-9 5-2-6 10-1 3 5-3 5-4-2 9h3l2-5 5-5-1 8h2l2-4 3-1v4l4-2 7-2 4-4 8 2v-5l5 2 12 4 4 2-4-4-13-5-11-2-6-1-17 3-4-1 6-3 17-3 1-2h6l3-1v-2l5 2 7 2 6 2-14-9-11-5-22-7-17-1-2-2 3-1 24-1 10-2 17 9 7 3 7 1 1 4 8 4 7 7-5-9-6-8h-3l-2-6-3-1-3-7-1-3h-2l-3-5-4-5-14-11-20-14 2-1 17 9 6 4 10 5 9 7 9 8 5 1 4 6 7 9 2 5 2-25h3l1 1 8-15 8-10 12-13 14-13 5-4 2 1-10 10-9 13-3 5 1 7-7 7-6 8-9 25 6-9 9-11 3-1 2 2 11-8 12-6 19-9 2 1-16 12-11 8-13 13-5 10-7 8-3 5h-2l-2 5-4 6 4-5 10-11 7-9 7-7 13-9 10-6v3l-5 4 5-1 17-6h6l-4 4-18 11-11 8-11 9-12 11-9 12-3 6 5-2 3-3 4-1-1 7-3 1v2h3l3-10 4-1v6l4-5h3v6h3l2-7 4-5 3 1-3 5v4h2v4l3-3 1-2 6 1v3l2-1 1-13 2 2 1 6 5 1v2l7-7 3 1-3 4-1 4 4-2 4-4-1 9h3l1-4h2l2-5 7-21 6-10 2-10 1-12h-2l-6 18h-1l1-11 8-16 4-6 8-6 6-3h23l27 6 8-1 5-5 4-6 5-3-2-5-1-11 4 1 4 5-1-5-3-6-8-10-5-7v-2l6 1 9 9 4 6 8 11h4l1 13 4 5 7 5v2l-7 4-14-1-6 11-9 9-7 13v7l7 27 2 4 2 1-1-3v-9h2l1 7 5-1v4h2l3-4h2l1 5h2l4-4-1 8 3-1v2l7-1 6 1 1-5 4 4 4 1v-5h3v5h2l2-5 5-8 2 1-2 5v6l1 2h2l3-9 2 1 1 7 9-2v2h2l2-6 6-9 9-8 14-7 29-10 5-3 4-1 42-2 17-2 31-8 12 3 9 3 21 3 9 7 7 9 3-8 3-7 2-2 4 1 3 9v19l4 8 5 7 5-5 5-6 2 1-6 9 6-4 9-12 2-2 4 1v8l-4 12h2l2-5h3l-1 5-1 2 8-6 3-1 2-4 6-6h4l1 2v7l-1 9 3 1 1-14 2-2v8l5-1-1 4 4-2 2-3h3l-1 8 8-6 5-1-2 4-3 3-1 2 7-2h3l-1 3 4-1 2-3 4 2 7 4-4-5 1-6 4 3 4 1 1-5h2l1 5h2l3-9 3-1v-2h2l-1 12v2l4-1 2-8 2 1 1 7 6-3 3-1v4l4-2 7-8 2-2 3 1-7 9-1 3 6-3 4-6h2l-1 5-2 6 3-1 4-9h2v8h2l2-8 3-1v9l4-1v2l4-4 2-4h2v9l5-2 1-3 4 2v3l2 1v-13l-12-2-16-8-6-8-2-5-1-6-1-28-13-2-10-4-9-6v-2l12 1 5 1h20l-2-3-16-8-3-2v-3h22l7-2 12-20 12-24 11-28 6-11 11-12 1-2h2l1-3 8-6 13-3h7l11 1 13-9 6-3h18l8 5 1 2 7-1 15-5 20-3h20l-5-5-8-7h3l13 9 5 4 14-1h10l6 2h7l11-5v-1l-12-3-18-8-14-9-5-4-1-7 5 1 27 14 12 4 20 3 9 3-2-4-2-5h-2l-8-8-6-2-10-1v-2l-5-2-6-5 3-1 6 4 11 3-4-6-10-13-4-6 1-4 9 13 11 13 11 10 5 4 11 14 5 5 11 6 11 9 17 17 7 8 12 11 15 12h1l-4-18-8-32-5-12-7-12-12-14-8-10-9-9-16-10-15-8-13-3-7-1-25-1h-22l-10-1-19 3-3 1h-11l-19-5-10-3-30 8-8 2-32 3-11 2h-7v-2l16-4 18-3h6l-3-3-8-6-1-1h-5l-5 4-26-2-9 2h-15l-10-5-4-5v-6l9-16v-3l-5-3-16 2h-9l-6-2 1-4 22 1-4-5-7-3 1-2 9 3 16 9h3l7-10v-3l-10-3-7-5-13 1-5-3-1-4 4-5 14-10 15-2h7l5 4v9l-5 5-5 2 1 4 2 3h2l3-6 6-4 4-9 7-3-1-2-9-2-9-4h-22l-7-3v-11l4-6 7-3 15-2 17-6h12l16 6 1 2v7l-5 5-4 2h-8l4 6v3l7-4 11-2 3-1 2-4 11-17 3-3 4-1 13-1 3-3 4-8 5-4 7-3h8l5-1h7l-1-2-9-3-8-6-9-5-4-6-2-5v-15l2-6-8-1-27-6h-9l2-4 8-5 7-2z" fill="#883400"/>
<path transform="translate(188,245)" d="m0 0h13l12 7 5 2h13l3 2 3 7 10 9 1 5-1 2h-2l-1 4-1 2 38-2h17l7-1 8 1v-2h18l3 1 10 2 13 5 6 2 13 2h8v2l5-1h73l23-1 1-1 10-1 5 1h3l1-3h3v2h6l6-3 13-3 6-2 10 1 12 1 5-1 1 2h21l9 1h15l2 1 53 1 9 3v-2h2v-5l5-2 5-1h17l3-1 5 1 5-2h16l9 1 12-2 2-1h14l16-1 4 2 21 2h22l13-2 22-3 7-1h8l5 1 9-1 20 1 6 1 5-1 4 1 3-2 14-1 7 1 7-1h19l16 2 18-3h14l4-1 28-1h22l15-1 29-1 5-1 13 1 3 2v6l-4 8-2 3 1 7 3 4 9 1 7-1 9 6 9 3-1 4-7 10-4-1-15-8-9-3 3 2 5 3 2 4h-22l-1 3h5l3 1h10l13-2 6 4-1 5-8 14v6l5 5 8 4h15l9-2 26 2 5-4h5l7 6 5 3v2l-29 5-11 2v2l18-3 32-3 27-7 12-3 23 7 5 1h11l17-3 9-1 6 1h30l17 1 17 3 16 8 14 8 12 11 9 10 8 10 9 12 7 15 7 26 5 21 1 7-4-2-14-11-7-7-8-7-12-13-11-11-13-9-9-5-10-13-6-7-8-7-10-9-13-17-2-4 1 5 10 13 6 8v2l-8-1-8-4h-1l6 5 2 1v2h10l7 3 7 6v2h2l5 7-1 3-9-3-20-3-16-6-25-13-3-1 2 7 13 9 16 8 13 5 7 2-3 3-9 4h-7l-6-2h-10l-14 1-13-10-7-4 12 10v2l-20 1-20 3-18 6-5-1-4-4-4-2h-18l-9 5-10 7-18-1-13 3-8 6-1 2h-2l-2 4-9 10-8 16-10 25-13 26-11 17-7 2h-18l-4-1 1 3 15 8 5 3v2l-7 1h-13l-17-3 5 5 8 4 19 5 1 2 1 26 2 9 6 9 16 8 12 2 1 1-1 13-3-1-1-4-2-1-1 4-5 1v-9l-2 1-3 6-3 1v-2l-5 2 1-10-3 3-2 6h-2v-8h-2l-3 9-4 1 1-6 2-5-9 9h-3l1-4 6-8-4 2-8 9h-3v-4l-6 4h-3l-2-7-3 8-2 1-3-3 1-9 1-3h-2v2l-3 3-3 7h-2l-1-5h-2l-1 5-5-1-2-2-1 5 1 3 3 1-2 2-8-6h-2l-2 3h-4l-1-3-3 2h-5l2-5 3-3-6 2-4 4h-2l1-8-3 1-3 4h-3l1-4-5 1-1-6-1 12-1 2-4-1 1-16v-2l-5 2-7 8-9 7h-2l2-7-3 1-2 4h-2l1-6 2-6v-8l-4 1-10 13-6 4v-3l5-7-5 5-5 6-5-5-5-9-1-2v-19l-3-9-4 1-3 7-3 9-8-8v-2l-4-2-5-4-21-3-19-6-17 4-16 4-17 2-42 2-7 3-16 6-20 7-13 8-8 9-5 10h-2v-2l-9 2-2-7-4 9-3-1-1-2 1-9v-2l-7 12h-2l-1-5h-1l-1 5-5-1-2-3-2 4h-13l-3-1v-7l-3 4-3-1v-5l-5 5-3-1 1-4-5 1-1-7h-2l1 12-3-1-4-11-5-20v-7l8-14 8-8 6-11 1-1 14 1 5-3h2l-12-12v-13l-4 1-10-13-6-8-7-6-4-1 7 10 9 12 2 5-1 4-5-6-3-1 3 13v4l-5 3-7 10-5 2-10-1-22-5h-23l-11 6-5 6-8 15-2 8v4l3-10 3-6h2v12l-2 10-7 12-6 19-3 5h-2l-1 4h-3v-8l-4 5h-3l1-5 2-3-3 1-4 5h-2l-1-2-4-1-2-6-1 11-3 1v-3l-6-1-2 5h-2v-4h-2l-1-4 3-5h-2l-4 6-2 5h-3v-6l-4 2-4 4 1-7-3 1-4 10h-3v-2l3-3v-4l-5 3-2 2h-4l2-6 7-9 9-10 14-12 14-10 21-13-7 1-17 6-4-1 6-5-4 1-15 10-12 11-8 10-9 11-2 3-2-1 7-11h2l2-5 9-11 4-8 15-15 17-12 7-5-20 9-14 7-9 7-2-1v-2l-5 4-10 14-3 5-1-2 9-25 9-11 4-4-1-7 9-14 11-12v-1l-10 9-8 7-7 7-9 11-7 11-5 9-3-2-2 26-2-1-4-8-8-10v-2h-5l-12-11-13-8-8-4-10-6-9-4 15 10 13 10 6 5 6 7v3h2l4 6v4l4 1 1 1v5l3-1 11 15 1 4-7-6-6-4-5-3-1-2-11-3-18-10-10 2-24 1-1 1 17 1 27 9 13 7 8 6-3 1-5-3-8-2-3-2v2l-5 2-4-1-1 3-17 3-5 2 17-2 5-1 10 2 10 3 10 4 2 4-11-3-10-5v5l-6-1-2-1-2 4-3 2-10 2v-4l-5 5h-2v-7l-6 9h-3l1-8-6 6h-3l1-5 4-6-4 2-6 8-5-1-5 2-4-4v-4h-2l-1 7-1 2-4-1-2-1 1-8v-3l-6 11h-2l-1-6-3 6-4-1-4-3-2 8-3 1-1-6-4 5-4-1 1-4h-2l-1 3-5-1 3-5 2-3-8 7h-9l-1-2 1-5h-5l2-29-5-11v-14l2-19 2 1 2 8v-8l-4-11-6-7-9-4-13-4-10-8-5-5-8-4v-2l-4-2-5-8-2-8-2-32-1-11 3-4 4-10-9 7h-3l2-8-4 5-3 2-1-4 2-4-2 1-2 6-4-2v-3h-4l3 9-1 8-5 13 8-2 7-1-1 23-1 26 2 14 4 12-1 6v8l4 13 4 15 4 32v8l-5 4-4 6-5 1-1-1h-6l-3 2-2-6h-1l-3 9-3-1-2-4 1-6v-3l-4 9-5 2 1-6 1-2v-6l-3 1-2 11h-3l-2-7-2-1-2 6-3-3v-4l-4 2-1 13-5 6h-1l-1-11-3-6 1-32 5-42 4-19 7-19 1-5v-7l-1-4v-10l5-12 2-14v-26l-1-23-2-15v-10h3v-2l-3-1 8 1 8 4h5l-1-7-8-16 3-7 1-13-2-1-2 5-4 8h-3l-2-8v-6h-4l2 5 1 7-3 1-5-11-2 2 4 8v3l-4-1-9-7-2-2-4-1 6 15 5 6-2 13-2 30-2 19-3 11-7 9-8 6-11 7-14 12-10 5-18 6-11 7-6 10-2 5-1 6v21l2-19 1-2 3 1 2 21 1 6v14l-4 10-3 5v12l1 7v28l-3 18h-7v-6l4-7-5 5-3 6-3 1 1-7h-2l-2 5h-3v-7l-2 1-2 4-6-2-3-6v-2h-2l1 12-1 2h-3l-2-5-3 5-4 1-2-8-4 6h-6l-1-1v-7h-3v-352l7-3 10-10h3v-2l9-3v-2l4-2h7l8 2 9-1 7-3 4-1v-2h3l1-3 5-3h3v-2l9-4 19-3 8-1h14v2l5 1v2h3v2h3v2l4 1 4 3 10 1 5 5 8 6 11 5 4 1 2-5 2-3 1-6-5-2-7-2v-11l3-3h3v-2z" fill="#FB9A2D"/>
<path transform="translate(184,652)" d="m0 0h2l-1 7-8 13-2 4-3 3-1 4-1 19 2 1h-2l1 15 1 3-1 8 5-5 5-10 4-7 11-13 7-8 9-8 14-11 6-5h2l-1 7-7 14-8 10-15 14-7 9v2l5-4 5-5 6-5 10-5 15-7h3l-1 6-7 14-9 10-2 8 8-7 8-6 5-7h2l-3 12v9h3l2-6 4-8 1-4h2l1 2v21l8-8h2v10l5-3 9-13 3-7h2v16l1 8 6-2 7-9 3-8 2 3 5 19v-8l-1-7h3l2 4v-23l-1-4v-8l2 1 4 12 5 11 1 3h2l2-10 2-1 1 16 6-4 4-4 3-5h2v4l7-3 16-7 18-5 17-2h16l22 5 35 10 19 4 7 1h19l15-4 12-5 9-6 13-2 20-2 16-5 10-5 2-2 1-9 1-2h6l4 1 1-5 1-1 7 1 8 8 11 5 15 5 6 3 12 21 4 4 2 4-1 7-7 6-12 6-8 3-7-1-13-6-5 2-10 9-10 14-3 8-1 7v31l2 22 5 19 7 14v2h2l-4-42-1-9 2 2 11 25 8 19 3 10h2l1-7 8-23 2-1-2 11-1 5v10l5 14 2 1-2-9 7-2 11-12 7-7h2l2 35 1 2 4-2 7-8 8-15 2-7 4 4 2-3 3 1-5 8-2 31h6l5-12 10-21 8-12 18-20 6-5 2 1-9 13-6 10-7 15-4 13-1 5v12l1 2h3l9-15 3-3-1 8-2 12 12 2 2-5 9-17 6-10 8-15 1 4-9 27-2 11v7l2 2 4-1 8-10 9-13 1 4-4 21 3-1 7-11 12-16 10-10 10-7 3 1-14 13-8 12-4 14 5-5 14-15 5-5 2 1-7 11-2 8h3l2-5 14-17 12-14 8-8 16-12 5-3 3 1-14 14-10 15-5 11-1 9 6 12 3-4 8-15 3 1v15l-1 5 2-1 6-17 11-23 5-7 1 3-8 22-3 14v12l2 5 3-1 9-12 9-13-1-4-4-4v-2l6 2 4 1 9-14 6-9 1 3-3 9-1 8v13l3 4v2h3l2-5 10-22 3-9 2 2 1 14 2 4 4-8 8-9 1 3-6 13-2 6 1 14 4-1 6-5 14-26 8-11 9-10 7-7 6-5 2 1-8 11-6 10-9 19-4 12-1 6h3l2-5 9-12 3-5h1l1 24 3 16 2 1 2-6 10-17 12-23 3-6 1 3-9 29-3 10 3-1 7-17 2-10 2 2 4 21 2-3 4-4-1 13-2 10 3-1 3-7 1-17 3 3 1 6 3-1 1-4v-15l-2-26-2-12v-6l3 4 9 20 8 20 2 1v-2l7-4 6-15 3-3-4 16v13l2 7 2 1 2-5 9-10 7-8 12-11 13-10 5-2-1 4-14 14-5 8v15l1 15 3-3 4-8 3-1v6h3l2-5 8-16 3-1 6-11 2-1-1 7-6 15-2 30h5l10-12 12-18 11-18 3-5 1 4-3 11-1 15 1 12 1 3h2l11-24 6-17 2 3 2 16v25l-1 6 8-9 9-7 1-4-6-20-6-16-4-7v-2l5 2 12 8 11 11 4 6 2-3 11-21 10-13 3-3 2 1-7 14-1 7v8l4 15 3 3 2-10 7-19 10-19 2-3-2-9-8-17 5 1 16 8 4 1 8-9h2l-3-5-7-10-8-17-7-14v-3l4 2 20 14 10 8 24 22 9 10 12 17 7 14 2 6 4-2 9-8h2l2-5 1-11v-13l-3-22-1-3 1-2-1-6v-18h5l3-2-1 4v14l1 2 7-14 2-5h3v9l-5 6-6 6v10l1 2 7-12 1 2-6 11-2 4v23l-2 32-1 8 4-4 9-11 7-9 7-15 5-12 12-28 4-11h2v18l-3 20-2 9 4 1-7 8-11 28-7 18v3h2l9-21 8-15 8-10 9-10 10-9 14-14 8-7 15-15 3-4h2l-1 5-10 15-9 14-10 13-21 28-5 12-1 4 16-16 13-9 16-8 30-14 16-8 2 1-10 7-11 7-12 9-12 11-8 6-1 3v13l1 13 3-3 13-27 4-10 2-1 2 20v16l-2 12 8-7 11-10 4-2-1 13-2 10 8-7 13-16 11-16h2v110h-1600v-211l6-7 4-6h1l-1 9-1 2 3-1 7-11 10-10h2l-2 4-4 6-7 10 6-5 1-2h2l2-4 4-3-1 6-2 5 10-14 8-8 11-8 2 1-4 5h-2l-2 4-3 5-3 7v7l3 3 4-9h2l1 5 6-12 5-11 1 3-6 21v6l2 2 7-10h2l-1-15-4-21 1-4 5 5 7 10 8 17v2h2l1-7 1-5v-2l4 2 9 7v2l4 1 2-6-1-5-10-9-2-1v-2l-5-2-13-9-3-3 5 1 22 11 9 4 3 2h6l3 6 3 1-2-5-11-15-12-17-6-9v-2l4 2 12 13 8 8 8 7 5 5 4-1-1-10-3-18v-6h3l8 20 7 15 4 10 3-5h1l-1 7-1 6 2 6 3-1 1-2v-43l2-20h2v-3h2v12l4-4 4-11z" fill="#431300"/>
<path transform="translate(171,361)" d="m0 0h4l2 14 3-1 3-7 3-5 3 1-1 13-3 7 8 16 1 7-1 1-7-1-9-4h-2v2h-3l2 25 3 1h-3l2 22v26l-2 14-5 12v10l1 4v7l-4 13-5 15-4 22-4 35-1 32 3 6 1 10 4-5 1-13 2-2h3l2 6 2-3 1-2 3 1 2 7h1l2-11 4-2 1 1v6l-2 7 4-1 1-5 4-6 1 3-2 4 1 5 1 3h2l3-9 2 1 1 5 4-2h6v2l5-2 6-8 3-1-5-40-4-15-4-13v-8l1-6-5-16-1-10 1-26 2-23-9 3h-6l1-5 4-11-2-14h4l2 4h2l2-6h2l-1 7 7-7 1 3-3 6 5-3 5-4h2l-1 5-4 8-1 1 1 11 2 32 3 10 4 6 3 2v2l4 1 9 6v2l4 2 8 6 16 5 6 4 5 6 4 11v8l-2 4-2-12-2 18v14l5 11-2 25-1 4h5v6h9l6-6h2l-4 8h4l1-2h2v4l4-1 3-4 1 1v6l3-3 2-6 4 2 4 1 3-6h1v7h2l2-5 5-8 1 2-3 11 6 2 2-9h2l2 6 4 1 3-1 1-2v3l4-1 7-9 5-2-6 10-1 3 5-3 5-4-2 9h3l2-5 5-5-1 8h2l2-4 3-1v4l4-2 7-2 4-4 8 2v-5l5 2 12 4 4 2-4-4-13-5-11-2-6-1-17 3-4-1 6-3 17-3 1-2h6l3-1v-2l5 2 7 2 6 2-14-9-11-5-22-7-17-1-2-2 3-1 24-1 10-2 17 9 7 3 7 1 1 4 8 4 7 7-5-9-6-8h-3l-2-6-3-1-3-7-1-3h-2l-3-5-4-5-14-11-20-14 2-1 17 9 6 4 10 5 9 7 9 8 5 1 4 6 7 9 2 5 2-25h3l1 1 8-15 8-10 12-13 14-13 5-4 2 1-10 10-9 13-3 5 1 7-7 7-6 8-9 25 6-9 9-11 3-1 2 2 11-8 12-6 19-9 2 1-16 12-11 8-13 13-5 10-7 8-3 5h-2l-2 5-4 6 4-5 10-11 7-9 7-7 13-9 10-6v3l-5 4 5-1 17-6h6l-4 4-18 11-11 8-11 9-12 11-9 12-3 6 5-2 3-3 4-1-1 7-3 1v2h3l3-10 4-1v6l4-5h3v6h3l2-7 4-5 3 1-3 5v4h2v4l3-3 1-2 6 1v3l2-1 1-13 2 2 1 6 5 1v2l7-7 3 1-3 4-1 4 4-2 4-4-1 9h3l1-4h2l2-5 7-21 6-10 2-10 1-12h-2l-6 18h-1l1-11 8-16 4-6 8-6 6-3h23l27 6 8-1 5-5 4-6 5-3-2-5-1-11 4 1 4 5-1-5-3-6-8-10-5-7v-2l6 1 9 9 4 6 8 11h4l1 13 4 5 7 5v2l-7 4-14-1-6 11-9 9-7 13v7l7 27 2 4 2 1-1-3v-9h2l1 7 5-1v4h2l3-4h2l1 5h2l4-4-1 8 3-1v2l7-1 6 1 1-5 4 4 4 1v-5h3v5h2l2-5 5-8 2 1-2 5v6l1 2h2l3-9 2 1 1 7 9-2v2h2l2-6 6-9 9-8 14-7 29-10 5-3 4-1 42-2 17-2 31-8 12 3 9 3 21 3 9 7 7 9 3-8 3-7 2-2 4 1 3 9v19l4 8 5 7 5-5 5-6 2 1-6 9 6-4 9-12 2-2 4 1v8l-4 12h2l2-5h3l-1 5-1 2 8-6 3-1 2-4 6-6h4l1 2v7l-3 9-11 14-21 21-6 9-6 8-11-1-12-2-10-5-11-9-9-11-4 2-7 11-6 14-4 13v8l5 7h2l4-5h2l-1 7 5 1 8-12 9-11 3-2v4l-7 11-3 8v5l9 5 5 1 2-8-1-8-1-5h2l3 5v3h4v8l2 6 8-8-1 10 3-3 6-8 9-8 2 1-9 11-1 3h-2l-1 4 3-1 7-9h2l-1 5-1 3h2l2-5 9-11 7-7 10-7 2 1-7 8-4 5-4 12 1 7h3l2-7 3-1 1 5 2 1 3-11 5-9 2-1-1 6-4 14-1 7 4-2 6-8 10-15 4-2-2 13 1 7 6-10 3-8h2l1 18-1 5 8-7 4-1-1 5-2 5 8-7 6-8 4-6h1l2 22 7-3 7-8 2-9h2l3 14 1 11h2l-1-5v-13h2l2 4v-23l-1-8 3 1 9 23 2 1 4-16h2l-1 10v12l5-5 7-8 1-2h2l1 10v9l5-2 5-8 3-6 2 2v18l3 1 1-6 7-13 4-6h2l2-4 3-5 3-1-1 4-4 4-3 7-3 9-1 9-1 2 4-1 4-7h3l-3 10 6-1 11-20 4-3-7 21-1 5 6-2 7-10 1 4-3 9h3l2-5 6-10 8-7 3-1-2 4-6 7-3 8 5-5 3-6h2l-1 10 4-4 4-6 9-10 5-4 5-5 3-1-2 4-4 5-2 1-5 12 1 7 1 2h2l3-8h2l2 7 4-12 5-9 2-1-1 6-4 12v9h3l7-10 7-11 4-6 1 4-1 5v10l3-1 5-11 1-5 3 1v6h3l2-5 3-1-1 5-4 12 6-1 8-13h2l2-5 5-7 1 2-6 10-2 6v4l3-1 5-10 2 1v13l1 6 2 1 10 21 8 16 7 9v3l-10 10-5-2-17-8h-2l9 19 1 6-9 16-7 16-6 19-3-1-4-12-1-5v-8l2-10 6-11-5 4-9 13-10 19-2 4-5-5-7-8-8-7-13-8 8 16 8 25 1 6-5 5-11 10-4 4 1-7v-25l-2-16-2 3-8 20-8 16-3-1-1-3-1-15 2-17 2-9-9 16-12 18-9 12-6 7h-5l-1-3 2-28 7-17v-4l-7 12h-3l-2 6-8 15h-3v-6l-3 2-5 10h-2l-2-15v-15l7-10 13-13 1-3-13 9-15 13-7 7-9 11-4 6-3-1-2-7v-13l4-15-5 11-3 7-5 3h-2v2l-3-1-6-15-11-25-1-2 2 16 2 26v15l-2 5h-3l-3-8-1 16-4 8h-4l2-10 1-12-4 8-2-2-4-21-5 16-5 10h-3l4-17 7-23-12 24-10 17-5 9-3-1-3-16-1-23-6 10-8 11h-3l1-9 6-16 11-21 8-10v-2l-15 14-8 9-8 13-12 22-8 7-4-1-1-14 5-13 3-6-1-1-6 7-5 9-2-1-1-4-1-14-11 25-5 9h-3l-4-6v-13l2-11 2-8-10 16-5 7-4-1-6-3 6 7-1 4-8 12-11 14-4-2-1-4v-12l4-17 7-19v-2l-8 14-8 17-5 15-3 1v-20l-2-1-2 5-8 15-4-4-4-9 1-9 8-16 9-12 12-12-5 2-14 10-12 11-9 10-11 14-8 11h-3l1-8 7-11-7 6-7 7-9 11h-2l1-8 4-9 8-11 12-11-5 2-10 8-8 8-13 18-5 8h-3l2-17 1-7-11 16-7 8-4-1-2-2 1-14 6-20 4-11-1-1-8 16-10 17-6 11-12-1-1-4 3-12v-4l-7 12-4 6-4-1-1-2v-12l4-15 7-16 6-11 9-12v-2l-8 7-7 8-9 10-9 15-8 17-5 12-4 1-3-1 1-31 5-8-2-1-2 4-3-3-7 15-8 11-5 5-3-1-1-2-1-12v-23l-8 7-8 8-5 6-5 1 1 8-3-1-5-14v-10l3-15-10 30h-2l-9-22-13-29-1-3 3 25 1 24h-2l-9-19-4-16-2-22v-31l2-10 4-8 9-12 7-7 6-4 9 3 8 4 7-1 13-5 10-7 2-3-1-7-2-5-4-2-9-17-2-3-23-8-9-5-7-7-7-1-2 5-3 1-7-2-1 11-5 4-10 5-14 4-20 2-13 2-13 8-14 5-9 2h-19l-22-4-29-8-26-7-6-1h-16l-21 3-17 5-16 8h-4v-4l-3 3-3 5-9 6-1-1-1-15-2 10h-4l-5-12-4-10-1-4v7l1 4v24l-5-5 1 7v10l-2-2-6-21-2 7-7 9-2 2h-5l-2-8v-12l1-4h-2l-1 5-6 9-7 9h-3l-1-5 1-5-5 4-3 4h-2l-1-23h-2l-1 7-6 11h-3l-1-9 4-12-3 3-7 8-8 5-3 4h-2v-6l9-11 5-8 5-13-25 11-8 6-5 5-6 5-1-3 7-9 10-10 8-7 9-14 5-14-17 13-13 11-11 12-10 13-3 8-7 10h-2l-1-4 1-5-1-2v-35l3-7 2-1 4-8 6-10 1-5-4 4-4 9-3 7-3 1v-12h-2v3h-2v14l-1 6v43l-2 3h-3l-3-6 1-6v-3l-2 2-4-8-7-16-8-19-2-3 1 13 3 15v6l-2 2-4-1-10-10-8-7-11-11-5-6-2-1 9 14 11 15 12 17-1 3-5-3-2-4h-5l-6-4-12-5-18-9h-2l11 7 9 6v2l4 2 10 9-1 6-2 4-4-1-5-5-8-6 1 6-3 8h-2l-10-21-9-12-1 3 4 21v15l-4 4-5 7-3-3 1-9 5-18-1 1-9 20-2-1v-5l-2 1-4 9-4-4v-7l5-11 4-5 5-5-7 4-13 12-10 14-1-3 3-5v-3l-5 6h-2l-2 4-3 3h-2l2-5 6-7 3-5 2-3-8 7-7 9-4 6h-3l1-10-6 9-4 3v-105h3l1 7 6 1 2-4 3-3 1 9 4-1 2-6 3 2v4h3v-14h2l3 7h3l1 2h2l2-4h2l1 7 3-3 1-2h2l-1 7 3-2 4-8 3-3 2 1-4 7-1 6h7v-8l2-10v-28l-1-7v-12l6-11 1-4v-14l-2-14-1-13-2-1-2 21-1 5h-1v-26l2-9 6-11 9-7 9-4 16-5 9-6 13-11 13-8 7-6 5-8 3-15 2-23 1-20 2-13-6-8-4-10v-3l5 1 8 7 6 3-4-9-1-3 3-2 2 2 3 10 2-2z" fill="#883400"/>
<path transform="translate(1350,434)" d="m0 0 4 4v2l-24 1 1 1 59 1 18-7h17l11 7 15 13 12 12 9 11 10 13 17 26 4 7-1 2h-8l-2-1-16 6-5 1-6-8-2-1v-2h-12l-8 6-11 14-16-2-12-2v2l-16 1-4-1-9 6-16 8-9 4-4 4-1 2-1 9-5 7 1 4 7 4 4-2h7l1-4 7-3 6-1v2l-10 6-1 1-1 11-1 1v5l1 1-1 14-9 6-4 4-1 4 2 5-1 9v6h-2l2 5 3 4 3 10 2 4h7l4-5 4-8 1-1 17-1 10-8 4 1 8 10 7 8v2h2l4 7-15 5-26 6-10 1v2l24-4-1 5-3 2-2 4h-2v3l-4 4-6 7 6-4 5-6 2-4 3-2 1-3h2l2-5 5-3 11-3h14l20 8 15 10 9 8-1 5-6 9-3 6-3-1-1-2-3-1 1-4v-2l-6 7-6 11-4 2-1-18-2-3-4 1-2 5h-2l-1 7-2-4-3-7-3-2v27l-2 2-3-5-2-11-2-7-4-13-3 1 1 9 5 10 2 6-3 3-1 4h-8l1 5 1 6-2 2-2-4-3-3-3-6v-2l-9-1v6l-4-1v-10l5-7 5-5-9 6-12 12-4 5h-2v-17l-3 9-3 2-4-7-6-16v10l1 21h-4l-3-3 1 4v7l-2 1-2-10-2-7h-2l-1 6-3 5-1-4 4-13-8 15-4 6-3-1-1-6v-13l-6 9-4 2 1-7 3-7 3-6-6 9-3 3-7 11h-6l1-7 4-10-4 4-1 2h-3l-1-6-2-1-1 7-5 10h-3l-1-2v-8l1-8-6 10-7 10-5 7-4-1v-9l4-12 1-5-6 11-3 10-2 1-1-8h-2l-1 5-2 4-3-1-2-5 1-7 5-10 5-5 3-4-6 4-4 5-8 7-6 8-4 6h-2l1-10h-2l-2 6-4 5h-2l1-6 9-12-9 7-9 15h-3l1-6v-4l-7 9h-5l1-9 5-13v-2l-6 10-6 11-1 1h-6l1-6 2-4h-3l-2 5-4 4-2-1 1-11 3-9 4-8 4-4v-2h-2l-1 4-4 5-3 3-8 14-3 8-4-1v-19l-2 2-4 8-4 5h-4l-1-9v-10h-2l-2 5-9 10h-2l-1-2v-10l2-10h-2l-1 8-3 9-3-2-9-23-2-1 2 8v24l-3-3v-2h-2l1 18h-2l-4-20v-5h-2l-1 9-8 9-3 2h-4l-1-2-2-19-6 9-9 10-3 1 1-5 2-5-5 3-5 5h-2v-23h-2l-3 9-5 9-2 1-1-8 2-12-5 5-9 14-6 7h-3v-7l4-14 1-5-6 12-3 8-3-1v-5l-3 3-2 5h-3l-2-8 5-12 7-8 2-4-11 8-8 8-9 13h-2l1-5 1-3-5 5-4 5h-3l1-4h2l1-4 8-10-6 4-8 9-3 5h-2v-9l-5 7h-2l-3-6v-6l1-2h-4l-3-6v3l1 8-3 8-7-1-8-5 1-8 5-10 5-7-1-2-6 7-6 8-7 10-6-2 1-5 1-2-5 5h-4l-5-7v-8l7-21 7-13 6-7 4 2 9 11 12 9 10 4 14 2h6l10-14 4-6 10-9 10-10 10-14 5 3 1-14 2-2v8l5-1-1 4 4-2 2-3h3l-1 8 8-6 5-1-2 4-3 3-1 2 7-2h3l-1 3 4-1 2-3 4 2 7 4-4-5 1-6 4 3 4 1 1-5h2l1 5h2l3-9 3-1v-2h2l-1 12v2l4-1 2-8 2 1 1 7 6-3 3-1v4l4-2 7-8 2-2 3 1-7 9-1 3 6-3 4-6h2l-1 5-2 6 3-1 4-9h2v8h2l2-8 3-1v9l4-1v2l4-4 2-4h2v9l5-2 1-3 4 2v3l2 1v-13l-12-2-16-8-6-8-2-5-1-6-1-28-13-2-10-4-9-6v-2l12 1 5 1h20l-2-3-16-8-3-2v-3h22l7-2 12-20 12-24 11-28 6-11 11-12 1-2h2l1-3 8-6 13-3h7l11 1 13-9 6-3h18l8 5 1 2 7-1 15-5 20-3z" fill="#BB4F00"/>
<path transform="translate(171,361)" d="m0 0h4l2 14 3-1 3-7 3-5 3 1-1 13-3 7 8 16 1 7-1 1-7-1-9-4h-2v2h-3l2 25 3 1h-3l2 22v26l-2 14-5 12v10l1 4v7l-4 13-5 15-4 22-4 35-1 32 3 6 1 10 4-5 1-13 2-2h3l2 6 2-3 1-2 3 1 2 7h1l2-11 4-2 1 1v6l-2 7 4-1 1-5 4-6 1 3-2 4 1 5 1 3h2l3-9 2 1 1 5 4-2h6v2l5-2 6-8 3-1-5-40-4-15-4-13v-8l1-6-5-16-1-10 1-26 2-23-9 3h-6l1-5 4-11-2-14h4l2 4h2l2-6h2l-1 7 7-7 1 3-3 6 5-3 5-4h2l-1 5-4 8-1 1 1 11 2 32 3 10 4 6 3 2v2l4 1 9 6v2l4 2 8 6 16 5 6 4 5 6 4 11v8l-2 4-2-12-2 18v14l5 11-2 25-1 4h5v6h9l6-6h2l-4 8h4l1-2h2v4l4-1 3-4 1 1v6l3-3 2-6 4 2 4 1 3-6h1v7h2l2-5 5-8 1 2-3 11 6 2 2-9h2l2 6 4 1 3-1 1-2v3l4-1 7-9 5-2-6 10-1 3 5-3 5-4-2 9h3l2-5 5-5-1 8h2l2-4 3-1v4l4-2 7-2 4-4 8 2v-5l5 2 12 4 4 2-4-4-13-5-11-2-6-1-17 3-4-1 6-3 17-3 1-2h6l3-1v-2l5 2 7 2 6 2-14-9-11-5-22-7-17-1-2-2 3-1 24-1 10-2 17 9 7 3 7 1 1 4 8 4 7 7-5-9-6-8h-3l-2-6-3-1-3-7-1-3h-2l-3-5-4-5-14-11-20-14 2-1 17 9 6 4 10 5 9 7 9 8 5 1 4 6 7 9 2 5 2-25h3l1 1 8-15 8-10 12-13 14-13 5-4 2 1-10 10-9 13-3 5 1 7-7 7-6 8-9 25 6-9 9-11 3-1 2 2 11-8 12-6 19-9 2 1-16 12-11 8-13 13-5 10-7 8-3 5h-2l-2 5-4 6 4-5 10-11 7-9 7-7 13-9 10-6v3l-5 4 5-1 17-6h6l-4 4-18 11-11 8-11 9-12 11-9 12-3 6 5-2 3-3 4-1-1 7-3 1v2h3l3-10 4-1v6l4-5h3v6h3l2-7 4-5 3 1-3 5v4h2v4l3-3 1-2 6 1v3l2-1 1-13 2 2 1 6 5 1v2l7-7 3 1-3 4-1 4 4-2 4-4-1 9h3l1-4h2l2-5 7-21 6-10 2-10 1-12h-2l-6 18h-1l1-11 8-16 4-6 8-6 6-3h23l27 6 8-1 5-5 4-6 5-3-2-5-1-11 4 1 4 5-1-5-3-6-8-10-5-7v-2l6 1 9 9 4 6 8 11h4l1 13 4 5 7 5v2l-7 4-14-1-6 11-9 9-7 13v7l7 27 2 4 2 1-1-3v-9h2l1 7 5-1v4h2l3-4h2l1 5h2l4-4-1 8 3-1v2l7-1 6 1 1-5 4 4 4 1v-5h3v5h2l2-5 5-8 2 1-2 5v6l1 2h2l3-9 2 1 1 7 9-2v2h2l-2 11-3 14v17l3 12-1 4-6 7-6 8-1-2 5-10-5 5-7 8h-2l2-6 11-13-5 3-9 10-6 9h-2l1-8 1-5h-2l-3 10h-3l-4-7v-2l-4-2-9-17-2-3-23-8-9-5-7-7-7-1-2 5-3 1-7-2-1 11-5 4-10 5-14 4-20 2-13 2-13 8-14 5-9 2h-19l-22-4-29-8-26-7-6-1h-16l-21 3-17 5-16 8h-4v-4l-3 3-3 5-9 6-1-1-1-15-2 10h-4l-5-12-4-10-1-4v7l1 4v24l-5-5 1 7v10l-2-2-6-21-2 7-7 9-2 2h-5l-2-8v-12l1-4h-2l-1 5-6 9-7 9h-3l-1-5 1-5-5 4-3 4h-2l-1-23h-2l-1 7-6 11h-3l-1-9 4-12-3 3-7 8-8 5-3 4h-2v-6l9-11 5-8 5-13-25 11-8 6-5 5-6 5-1-3 7-9 10-10 8-7 9-14 5-14-17 13-13 11-11 12-10 13-3 8-7 10h-2l-1-4 1-5-1-2v-35l3-7 2-1 4-8 6-10 1-5-4 4-4 9-3 7-3 1v-12h-2v3h-2v14l-1 6v43l-2 3h-3l-3-6 1-6v-3l-2 2-4-8-7-16-8-19-2-3 1 13 3 15v6l-2 2-4-1-10-10-8-7-11-11-5-6-2-1 9 14 11 15 12 17-1 3-5-3-2-4h-5l-6-4-12-5-18-9h-2l11 7 9 6v2l4 2 10 9-1 6-2 4-4-1-5-5-8-6 1 6-3 8h-2l-10-21-9-12-1 3 4 21v15l-4 4-5 7-3-3 1-9 5-18-1 1-9 20-2-1v-5l-2 1-4 9-4-4v-7l5-11 4-5 5-5-7 4-13 12-10 14-1-3 3-5v-3l-5 6h-2l-2 4-3 3h-2l2-5 6-7 3-5 2-3-8 7-7 9-4 6h-3l1-10-6 9-4 3v-105h3l1 7 6 1 2-4 3-3 1 9 4-1 2-6 3 2v4h3v-14h2l3 7h3l1 2h2l2-4h2l1 7 3-3 1-2h2l-1 7 3-2 4-8 3-3 2 1-4 7-1 6h7v-8l2-10v-28l-1-7v-12l6-11 1-4v-14l-2-14-1-13-2-1-2 21-1 5h-1v-26l2-9 6-11 9-7 9-4 16-5 9-6 13-11 13-8 7-6 5-8 3-15 2-23 1-20 2-13-6-8-4-10v-3l5 1 8 7 6 3-4-9-1-3 3-2 2 2 3 10 2-2z" fill="#BB4F00"/>
<path transform="translate(1118,315)" d="m0 0h13l1 3 2 1-1 3h5l3 1h10l13-2 6 4-1 5-8 14v6l5 5 8 4h15l9-2 26 2 5-4h5l7 6 5 3v2l-29 5-11 2v2l18-3 32-3 27-7 12-3 23 7 5 1h11l17-3 9-1 6 1h30l17 1 17 3 16 8 14 8 12 11 9 10 8 10 9 12 7 15 7 26 5 21 1 7-4-2-14-11-7-7-8-7-12-13-11-11-13-9-9-5-10-13-6-7-8-7-10-9-13-17-2-4 1 5 10 13 6 8v2l-8-1-8-4h-1l6 5 2 1v2h10l7 3 7 6v2h2l5 7-1 3-9-3-20-3-16-6-25-13-3-1 2 7 13 9 16 8 13 5 7 2-3 3-9 4h-7l-6-2h-10l-14 1-13-10-7-4 12 10v2l-20 1-20 3-18 6-5-1-4-4-4-2h-18l-9 5-10 7-18-1-13 3-8 6-1 2h-2l-2 4-9 10-8 16-10 25-13 26-11 17-7 2h-18l-4-1 1 3 15 8 5 3v2l-7 1h-13l-17-3 2-2-1-6-5-4-13-7-8-5-3-1h-7l-2 3-9-2-2-1 2-4 5-2v-3l-25-2-11-6-6-4-43 1h-27l-18-6-8-2v-2l-7-2-12-2-3-1h-26l-6-3-2-5 4-7h2l2-7 3-1h7v-2l18-4v-2l3-2h14l12 3 9 5v2l9 1 2 1 1 7-6 7v2l-25 3-2 2 8 4 16 6 9 2h32l27-1 2-1-11-10-3-2-27-1 2-2-6-4-6-15v-3h2l10 14 5 6v2h21l10 6 9 5 11 6 4 3 17 2 23 3 27 12-3-15-5-12-8-16-7-12-5-6-12-9-8-4-6-1-28-2-36-4-3-1-15-1v2l-8 2-24 1-25 6-8 3-9 1-23 1-14 3-1 1h-11l-3-1h-9l-8 6h-3l-1 3-10 6-4 1h-19l-7-3-4-5 4-6 4-3h2v-2l6-1 2-4 3-5h2v-2l15-3 3-4h2l-1-10 7-6 2-4h2l1-5 3-3 5-1 39-1 10-4h2v-2h3l1-3 5-5 4-3h3v-2l7-1h28l7 4-3 7-4 4v6l8 7 5 6v2h2l3 7 10 2h15l10-3 31-3-4-3-13-5-13-7-14-5-11-5v-2l-4-1-6-5-7-8-7-2-4-2h-12l-6-5v-2l-15 1-4 3h-2v2l-3 3-11 4-5-1-9-4h-14v-2l-5-1-4-4-1-8 4-2v-11l7-10 16-7 20-1v-5l4-2 10-2 2-1h14l2-4 7-1 6 3 6-1 5-1 8 3v2h4l2-8h2l2-5 3-1 13-1 9-6 8-1 7 2h6l7-5 11-1 6-5 5-2h7l11 4 4 2h8l12-1 9 1 8-5 3-1z" fill="#F97301"/>
<path transform="translate(188,245)" d="m0 0h13l12 7 5 2h13l3 2 3 7 10 9 1 5-1 2h-2l-1 4-2 2h-16l-5-5-5-2-4 1-6 4-2-1 5-6 4-1v-2l-12-2-6-2v2l6 1-1 3-8 3-1 4 9 3 1-3h2l-2 4-1 4 5 6 6 4 2 4 2 2 25 4 11 7 10 9 6 12 4 6v5l-7 6-2 1h-6l-6-3-5 1-6 5h-2l2 3 24 8 5 1 21 2 7 2 4 8 2 10h8l13 4 4 3v9l-6 12-8 7-8 4-9 1-17-5-10-3h-9l-5 1h-10l-12-6-4-1h-12l-14 6-22 5-7-1-2-15v-10h3v-2l-3-1 8 1 8 4h5l-1-7-8-16 3-7 1-13-2-1-2 5-4 8h-3l-2-8v-6h-4l2 5 1 7-3 1-5-11-2 2 4 8v3l-4-1-9-7-2-2-4-1 6 15 5 6-2 13-2 30-2 19-3 11-7 9-8 6-11 7-14 12-10 5-18 6-11 7-6 10-2 5-1 6v21l2-19 1-2 3 1 2 21 1 6v14l-4 10-3 5v12l1 7v28l-3 18h-7v-6l4-7-5 5-3 6-3 1 1-7h-2l-2 5h-3v-7l-2 1-2 4-6-2-3-6v-2h-2l1 12-1 2h-3l-2-5-3 5-4 1-2-8-4 6h-6l-1-1v-7h-3v-352l7-3 10-10h3v-2l9-3v-2l4-2h7l8 2 9-1 7-3 4-1v-2h3l1-3 5-3h3v-2l9-4 19-3 8-1h14v2l5 1v2h3v2h3v2l4 1 4 3 10 1 5 5 8 6 11 5 4 1 2-5 2-3 1-6-5-2-7-2v-11l3-3h3v-2z" fill="#F87301"/>
<path transform="translate(560,470)" d="m0 0h8l14 3 21 10 22 14 11 8 19 14 10 8 11 8 3 7-3 7-7-6-6-8-7-8-4-3-4-1 7 10 9 12 2 5-1 4-5-6-3-1 3 13v4l-5 3-7 10-5 2-10-1-22-5h-23l-11 6-5 6-8 15-2 8v4l3-10 3-6h2v12l-2 10-7 12-6 19-3 5h-2l-1 4h-3v-8l-4 5h-3l1-5 2-3-3 1-4 5h-2l-1-2-4-1-2-6-1 11-3 1v-3l-6-1-2 5h-2v-4h-2l-1-4 3-5h-2l-4 6-2 5h-3v-6l-4 2-4 4 1-7-3 1-4 10h-3v-2l3-3v-4l-5 3-2 2h-4l2-6 7-9 9-10 14-12 14-10 21-13-7 1-17 6-4-1 6-5-4 1-15 10-12 11-8 10-9 11-2 3-2-1 7-11h2l2-5 9-11 4-8 15-15 17-12 7-5-20 9-14 7-9 7-2-1v-2l-5 4-10 14-3 5-1-2 9-25 9-11 4-4-1-7 9-14 11-12v-1l-10 9-8 7-7 7-9 11-7 11-5 9-3-2-2 26-2-1-4-8-8-10v-2h-5l-12-11-13-8-8-4-10-6-9-4 15 10 13 10 6 5 6 7v3h2l4 6v4l4 1 1 1v5l3-1 11 15 1 4-7-6-6-4-5-3-1-2-11-3-18-10-10 2-24 1-1 1 17 1 27 9 13 7 8 6-3 1-5-3-8-2-3-2v2l-5 2-4-1-1 3-17 3-5 2 17-2 5-1 10 2 10 3 10 4 2 4-11-3-10-5v5l-6-1-2-1-2 4-3 2-10 2v-4l-5 5h-2v-7l-6 9h-3l1-8-6 6h-3l1-5 4-6-4 2-6 8-5-1-5 2-4-4v-4h-2l-1 7-1 2-4-1-2-1 1-8v-3l-6 11h-2l-1-6-3 6-4-1-4-3-2 8-3 1-1-6-4 5-4-1 1-4h-2l-1 3-5-1 3-5 2-3-8 7h-9l-1-2 1-5h-5l2-29-5-11v-14l2-19 2 1 2 8v-8l-4-11-6-7-9-4-13-4-10-8-5-5-8-4v-2l-4-2-5-8-2-8v-7l5-2 89-18 35-8 12-1 28 6 16 5 11 6 3 2h13l38-8 47-7 33-7z" fill="#F9B746"/>
<path transform="translate(184,652)" d="m0 0h2l-1 7-8 13-2 4-3 3-1 4-1 19 2 1h-2l1 15 1 3-1 8 5-5 5-10 4-7 11-13 7-8 9-8 14-11 6-5h2l-1 7-7 14-8 10-15 14-7 9v2l5-4 5-5 6-5 10-5 15-7h3l-1 6-7 14-9 10-2 8 8-7 8-6 5-7h2l-3 12v9h3l2-6 4-8 1-4h2l1 2v21l8-8h2v10l5-3 9-13 3-7h2v16l1 8 6-2 7-9 3-8 2 3 5 19v-8l-1-7h3l2 4v-23l-1-4v-8l2 1 4 12 5 11 1 3h2l2-10 2-1 1 16 6-4 4-4 3-5h2v4l2 1-6 3-12 11-9 10-18 27-13 21-11 16-7 9-10 11-14 11-14 8-15 8-3 4v3l3 2v9l-11 24-6 13h-2l-2-7v-24l3-14-12 20-13 19-7 9-6 9-4-2-1-3v-15l4-11 11-18 5-11 8-29v-4l-16 10-14 11-9 3-8 6-4 2 3-7 13-19 14-18 4-4h14l2-1-1-3-8-2 1-4 6-8 7-8 4-2 14 1v-4l-9-2 2-4 10-9 3-5v-4l-4 1-4 7-2 6-17 17h-1l-1-9h-5l-2 12 2 4-8 11-10 11-13 17-12 18-11 17-4 4-2-13v-10l6-7 7-10 8-13 7-14 9-27 2-12 3-39 1-3 1 4 3-1 1-2v-43l2-20h2v-3h2v12l4-4 4-11z" fill="#883400"/>
<path transform="translate(845,356)" d="m0 0h9l1 9h2l-1 5-13 8v1h10v8l-3 2 1 8 5 4 3 1v2l6-1h8l9 4 5 1 8-3h3l1-3h2v-2l6-4h15l4 5 7 1h7l5 3 7 2 9 10 7 4v2l18 6 9 4 13 7 13 5 3 4-32 3-10 3h-15l-10-2-3-6v-2h-2l-9-11-5-4v-6l6-7 1-4-6-3h-35v2l-7 4-6 7h-3v2l-12 5-39 1-6 2-2 2-1 4h-2l-2 5-6 5v10l-5 5-12 2h-3v2l-3 2-4 7-6 2h-12l-12-2-5-5-1-2-14-3-9-1-89-1-24-1-21-3-8-2 1-4 9-4 20-4 31-3 53-3h24l8 4h13l27-3v-8l6-4 20-7 3-3-6-3v-3l6-4 6-1h8v-2l-8-1h-14l-35 2-57 4h-44l-70-2-22-2-10-4-3-2v-2l-11-2-18-4-2-1 1-4 12-3 21-2 35-1 22-2 13-3 9-3 9-1 7 1h10l18-3h7l5 2h8l9-2 7 1 2 4 34-3 17-3 7-3h10l2 3h9l20-5z" fill="#FEC377"/>
<path transform="translate(700,548)" d="m0 0h8l8 4 11 4 5 2 13-2 14 3h30l7-1 7 3 4-2 7 1 5 4 1-3h5v2h17l3-1h6v2l18-2 8 1 14-1 3-1-5-1v-1l6-1-3-3 2-1 19-1h15l-3 2 4-1 2-2h10v1h18l4 2 6-1 3-1 5 2 12-2 18 1-2-1v-1h19l5 3h4l-3-3h3l7 1-3 2 4 3v2l6-2-2 4h-2v2l2 2-1 5 1 7-1 6-2 3h3l-1 5-2 5 5 1 1 4 2-4h2v11l1 10 4 3-1-8 2-2 5 1 2 5 2 2 1 4 2 1-1-12 2-13 2-1 2 16 1 3h2l2 4 5 5-1 5-4 6 5 5h2l1-4 5 2 1 2-4 9h-2l-1-5h-2l-1 5-5-1-2-2-1 5 1 3 3 1-2 2-8-6h-2l-2 3h-4l-1-3-3 2h-5l2-5 3-3-6 2-4 4h-2l1-8-3 1-3 4h-3l1-4-5 1-1-6-1 12-1 2-4-1 1-16v-2l-5 2-7 8-9 7h-2l2-7-3 1-2 4h-2l1-6 2-6v-8l-4 1-10 13-6 4v-3l5-7-5 5-5 6-5-5-5-9-1-2v-19l-3-9-4 1-3 7-3 9-8-8v-2l-4-2-5-4-21-3-19-6-17 4h-7l-7 1h-14l-6-2-22-2-8-2v-2l-11-1-15-3-24-6-20-7-21-11-10-7-15-11z" fill="#FA7D38"/>
<path transform="translate(560,470)" d="m0 0h8l14 3 21 10 22 14 11 8 19 14 10 8 11 8 3 7-3 7-7-6-6-8-7-8-4-3-4-1 7 10 9 12 2 5-1 4-5-6v-2h-2l-3-7-5-5-3-2v-2l-9-2-7-1-45-1-28-1-31 2-8 1-28-1-69-1h-95l-57 1-14 2-4 1v8l1 5 6 2 4 3h-6l-9-7-8-7-8-4v-2l-4-2-5-8-2-8v-7l5-2 89-18 35-8 12-1 28 6 16 5 11 6 3 2h13l38-8 47-7 33-7z" fill="#FDD777"/>
<path transform="translate(137,670)" d="m0 0 2 1 8 20 7 15 4 10 3-5h1l-1 7-1 8-5 4-12 21-9 16-11 23-5 17-2 11-1 15-3-3-2-8h-2l4 15 3 14 2 15v10l-4 6-5 7-3-1-5-15-12-23-8-10-16-16-3-1 1 6 7 25 5 28 1 8-5-3-15-13-2-9-7-16-2-6-2-17-4-21v-6l2-4-6-10-3-1v7l6 13 6 34h-2l-6-9-10-13-9-10-9-9-7-4v-44l6-7 4-6h1l-1 9-1 2 3-1 7-11 10-10h2l-2 4-4 6-7 10 6-5 1-2h2l2-4 4-3-1 6-2 5 10-14 8-8 11-8 2 1-4 5h-2l-2 4-3 5-3 7v7l3 3 4-9h2l1 5 6-12 5-11 1 3-6 21v6l2 2 7-10h2l-1-15-4-21 1-4 5 5 7 10 8 17v2h2l1-7 1-5v-2l4 2 9 7v2l4 1 2-6-1-5-10-9-2-1v-2l-5-2-13-9-3-3 5 1 22 11 9 4 3 2h6l3 6 3 1-2-5-11-15-12-17-6-9v-2l4 2 12 13 8 8 8 7 5 5 4-1-1-10-3-18v-6z" fill="#883400"/>
<path transform="translate(461,544)" d="m0 0h11l14 1 3 10-2 6-10 11-9 14-5 9-3-2-2 26-2-1-4-8-8-10v-2h-5l-12-11-13-8-8-4-10-6-9-4 15 10 13 10 6 5 6 7v3h2l4 6v4l4 1 1 1v5l3-1 11 15 1 4-7-6-6-4-5-3-1-2-11-3-18-10-10 2-24 1-1 1 17 1 27 9 13 7 8 6-3 1-5-3-8-2-3-2v2l-5 2-4-1-1 3-17 3-5 2 17-2 5-1 10 2 10 3 10 4 2 4-11-3-10-5v5l-6-1-2-1-2 4-3 2-10 2v-4l-5 5h-2v-7l-6 9h-3l1-8-6 6h-3l1-5 4-6-4 2-6 8-5-1-5 2-4-4v-4h-2l-1 7-1 2-4-1-2-1 1-8v-3l-6 11h-2l-1-6-3 6-4-1-4-3-2 8-3 1-1-6-4 5-4-1 1-4h-2l-1 3-5-1 3-5 2-3-8 7h-9l-1-2 1-5h-5l2-29-5-11v-14l2-19 2 1 2 8 1-8h1l1 6 9-7 13-5 11-3 36-2h9l11 1v-3h-2v-2l-4-2-5-4 1-4 2-1h66z" fill="#FB992C"/>
<path transform="translate(38,494)" d="m0 0h13l9 8 11 9-7 15-1 6v21l2-19 1-2 3 1 2 21 1 6v14l-4 10-3 5v12l1 7v28l-3 18h-7v-6l4-7-5 5-3 6-3 1 1-7h-2l-2 5h-3v-7l-2 1-2 4-6-2-3-6v-2h-2l1 12-1 2h-3l-2-5-3 5-4 1-2-8-4 6h-6l-1-1v-7h-3v-148l29-1z" fill="#FB992C"/>
<path transform="translate(513,537)" d="m0 0 2 1-5 7 3 2 19-1h25l77 1 4-1h12l6 7 2-2 2 9v4l-5 3-7 10-5 2-10-1-22-5h-23l-11 6-5 6-8 15-2 8v4l3-10 3-6h2v12l-2 10-7 12-6 19-3 5h-2l-1 4h-3v-8l-4 5h-3l1-5 2-3-3 1-4 5h-2l-1-2-4-1-2-6-1 11-3 1v-3l-6-1-2 5h-2v-4h-2l-1-4 3-5h-2l-4 6-2 5h-3v-6l-4 2-4 4 1-7-3 1-4 10h-3v-2l3-3v-4l-5 3-2 2h-4l2-6 7-9 9-10 14-12 14-10 21-13-7 1-17 6-4-1 6-5-4 1-15 10-12 11-8 10-9 11-2 3-2-1 7-11h2l2-5 9-11 4-8 15-15 17-12 7-5-20 9-14 7-9 7-2-1v-2l-5 4-10 14-3 5-1-2 9-25 9-11 4-4-1-7 9-14 11-12z" fill="#FB992C"/>
<path transform="translate(966,462)" d="m0 0h15l11 2 39 4 17 1 9 2 12 8 7 6 9 13 8 15 7 17 2 8v7l-5-1-18-8-4-2-23-3-17-2-9-6-6-3-18-10-1-1-21-1-7-9-8-11v-2h-2l6 16v2l5 2 2 3 24 1 10 9 5 5-3 1-27 1h-32l-15-4-17-7-2-3 3-2 24-3 3-5 3-3v-7l-11-2 1-4 6-1-2-3-26-4-28-1v-1l12-2 13-4 17-4 24-1 8-1z" fill="#FB992C"/>
<path transform="translate(1239,530)" d="m0 0 4 1 11 23-1 16-7 38-5 20-9 19-8 9h-3v-3h-2l-2 4h-15l-2-1 1-6 3-7-3 3-5 10h-2l-1-7-3 5h-3l1-7h-3l-2 5h-2l-1-4-3 1-1-1v-5l9-8 8-14 5-10-2-3h-11l-5 8-6 8-4 2h-10l-5-5-2-5v-18l2-11 4-6 17-12 10-9 7-10 7-1 19-13 7-3z" fill="#FB992C"/>
<path transform="translate(13,407)" d="m0 0 3 1 2 4h36l17 12 8 6 7 8 9 13 2 5v15l-5 9-2 2v8l1 9-3 3-12 6-4 3-4-2-14-11-3-3h-13l-9 1h-29v-87z" fill="#F97301"/>
<path transform="translate(777,591)" d="m0 0 19 4 3 2 30 5-2 4-6 2 4 2-20 1-7 3-16 6-20 7-13 8-8 9-5 10h-2v-2l-9 2-2-7-4 9-3-1-1-2 1-9v-2l-7 12h-2l-1-5h-1l-1 5-5-1-2-3-2 4h-13l-3-1v-7l-3 4-3-1v-5l-5 5-3-1 1-4-5 1-1-7h-2l1 12-3-1-4-11-5-20v-7l6-11 4-2 12-3 26-3h53l20 1z" fill="#FB992C"/>
<path transform="translate(430,783)" d="m0 0 5 2 25 13 21 8 23 7 5 1v46l-2 17-5 10h-3l-1-3v-28l4-11-1-1-12 20-12 17-15 20h-3l-2-8v-8l3-16 4-12 5-12-3 3-12 23-7 21-1 2h-2l1-23h-3l-3 9-7 12h-2l-6-15 1-8 8-16 11-14 10-10-6 2-13 10-12 11-7 8-11 13-7 10-2 3-3-1 1-7 3-6-1-1-2 2h-3l1-8 4-8 4-5 11-16 10-15 5-10 2-6z" fill="#883400"/>
<path transform="translate(1388,364)" d="m0 0 25 1 17 3 16 8 14 8 12 11 9 10 8 10 9 12 7 15 7 26 5 21 1 7-4-2-14-11-7-7-8-7-12-13-11-11-13-9-9-5-10-13-6-7-8-7-10-9-13-17-4-10-2-3z" fill="#FB992C"/>
<path transform="translate(1044,587)" d="m0 0 1 4-3 6 5 1 1 4 2-4h2v11l1 10 4 3-1-8 2-2 5 1 2 5 2 2 1 4 2 1-1-12 2-13 2-1 2 16 1 3h2l2 4 5 5-1 5-4 6 5 5h2l1-4 5 2 1 2-4 9h-2l-1-5h-2l-1 5-5-1-2-2-1 5 1 3 3 1-2 2-8-6h-2l-2 3h-4l-1-3-3 2h-5l2-5 3-3-6 2-4 4h-2l1-8-3 1-3 4h-3l1-4-5 1-1-6-1 12-1 2-4-1 1-16v-2l-5 2-7 8-9 7h-2l2-7-3 1-2 4h-2l1-6 2-6v-8l-4 1-10 13-6 4v-3l5-7-5 5-5 6-5-5-5-9-1-2v-23l4-2 1-3 7-1 14-3 28-7v-2l10-4 6-2z" fill="#FB982C"/>
<path transform="translate(1599,319)" d="m0 0h1v102l-8 10-9 15-13 25-8 19-3 8-3-3-5-17-2-16v-21l3-25 7-36 4-8 4-2 1-3 8-7 6-8 8-14 5-12 3-6z" fill="#FB992C"/>
<path transform="translate(181,572)" d="m0 0h24l3 3 4 1 1-2 6 18 5 37v8l-5 4-4 6-5 1-1-1h-6l-3 2-2-6h-1l-3 9-3-1-2-4 1-6v-3l-4 9-5 2 1-6 1-2v-6l-3 1-2 11h-3l-2-7-2-1-2 6-3-3v-4l-4 2-1 13-5 6h-1l-1-11-3-6 1-32 4-35h1l1 6 7-7z" fill="#FB992C"/>
<path transform="translate(567,811)" d="m0 0h9l4 18 7 12 10 14 11 17-1 8-6 8-8 8-10 5-3-1-3-14-1-29-10 16-13 16-7 8-4 2 1-16 2-5-7 4-6 5h-3l1-10 6-27 8-28 3-10z" fill="#883400"/>
<path transform="translate(1427,312)" d="m0 0 4 1 8 4 19 13 10 6 9 4 9 2 20 2 7 12 11 11 8 7 10 10 2 3v7l-7 32-7-6-10-10-10-13-9-13-10-9-19-11-16-9-13-10-12-11-10-9 1-6z" fill="#FB992C"/>
<path transform="translate(1094,410)" d="m0 0 2 3 9 19 8 10 6 5 4 13 3 16 2 18v14l-3 16-3 9-2-1-5-13-11-23-8-12-8-10-10-10-7-6 1-18 4-12 6-10 10-7z" fill="#FB992D"/>
<path transform="translate(540,593)" d="m0 0h15l5 1 1 4 3 1-2 9v4l3-10 3-6h2v12l-2 10-7 12-6 19-3 5h-2l-1 4h-3v-8l-4 5h-3l1-5 2-3-3 1-4 5h-2l-1-2-4-1-2-6-1 11-3 1v-3l-6-1-2 5h-2v-4h-2l-1-4 3-5h-2l-4 6-2 5h-3v-6l-4 2-4 4 1-7-3 1-4 10h-3v-2l3-3v-4l-5 3-2 2h-4l2-6 7-9 9-10 14-12 14-10 21-13z" fill="#FB982C"/>
<path transform="translate(777,591)" d="m0 0 19 4 3 2 30 5-2 4-6 2 4 2-20 1-7 3-16 6-8 2-26-7-32-6h-41l-19 2h-8l2-5 3-6 4-2 12-3 26-3h53l20 1z" fill="#F0852D"/>
<path transform="translate(109,553)" d="m0 0 23 2 1 9v16l-1 12-1 32-4 25-3 6h-3l-1-11 1-4h-2l-1 6-6 8h-2v-6h-3l-1 3h-2l-5-14-6-24v-10l15-44z" fill="#F97301"/>
<path transform="translate(205,505)" d="m0 0 2 1v23l2 14 4 12-1 6v15l-5-1-4-2h-22l-16 2-5 6h-2l-1 2v-15l4-19 7-19 1-5v-13z" fill="#F9B646"/>
<path transform="translate(13,407)" d="m0 0 3 1 2 4h36l17 12 8 6 7 8 9 13 2 5v15l-5 9-2 2v8l1 9-3 3-5 2h-5l-7-7-18-10-2-9v-8l16-1 9-2 4-5 2-6-5-5-9-5-7-3-11-10-6-7-2-1h-42v-16z" fill="#FB992C"/>
<path transform="translate(158,726)" d="m0 0h2l1 5-3 37-3 15-8 24-8 16-9 14-9 12-2 2v26l-2 1-3-27-6-27v-2h2l4 10 2-20 4-16 7-17 10-20 13-22 5-8h2z" fill="#421200"/>
<path transform="translate(1320,576)" d="m0 0 16 3 5 6 6 3 4-2h7l1-4 7-3 6-1v2l-10 6-1 1-1 11-1 1v5l1 1-1 14-9 6-4 4-1 4 2 5-1 5-3 3-3 1-1 4-5-1 1-8v-2l-5 10h-3v-6h-2l-2 6h-3l-1-3-3-2-3-27-2-13v-7l4-10 3-7z" fill="#FB992D"/>
<path transform="translate(1408,436)" d="m0 0h17l11 7 15 13 12 12 9 11 10 13 17 26 4 7-1 2h-8l-2-1-16 6-5 1-6-8-3-3-8-28-7-16-10-13-9-8-14-9-7-6-5-2 3-3z" fill="#FB982C"/>
<path transform="translate(1106,578)" d="m0 0 12 5 16 4 1 2 1 26 2 9 6 9 16 8 12 2 1 1-1 13-3-1-1-4-2-1-1 4-5 1v-9l-2 1-3 6-3 1v-2l-5 2 1-10-3 3-2 6h-2v-8h-2l-3 9-4 1 1-6 2-5-9 9h-3l1-4 6-8-4 2-8 9h-3v-4l-6 4h-3l-1-6 2-8 1-17v-33z" fill="#F97301"/>
<path transform="translate(1599,536)" d="m0 0h1v119l-4-1-1-5h-5l2 4v4h-3l-2-3v-9h-2l-3 9-3 1-3-47v-17l6-32 1-13z" fill="#FA7D38"/>
<path transform="translate(906,480)" d="m0 0h14l12 3 9 5v2l9 1 2 1 1 7-6 7v2l-25 3-2 2 8 4 16 6 9 2 32 1v1l-9 1h-27l-18-6-8-2v-2l-7-2-12-2-3-1h-26l-6-3-2-5 4-7h2l2-7 3-1h7v-2l18-4v-2z" fill="#F97301"/>
<path transform="translate(12,850)" d="m0 0 8 1 13 8 11 9-2 5-10 18-6 10-13 23-4-2-2-5v-10l4-17h-2l-2 6-5 9-2 1v-34z" fill="#883400"/>
<path transform="translate(1206,408)" d="m0 0h5l3 3-1 4-11 12-14 10-21 12-5 5h-2l-2 4-7 9-13 16-3 1-3-16-1-4v-7l8-9 8-7 10-13 12-2 9-2 7-3 8-5h2v-2h3v-2z" fill="#FB9A2D"/>
<path transform="translate(1050,598)" d="m0 0h2v11l1 10 4 3-1-8 2-2 5 1 2 5 2 2 1 4 2 1-1-12 2-13 2-1 2 16 1 3h2l2 4 5 5-1 5-4 6 5 5h2l1-4 5 2 1 2-4 9h-2l-1-5h-2l-1 5-5-1-2-2-1 5 1 3 3 1-2 2-8-6h-2l-2 3h-4l-1-3-3 2h-5l2-5 3-3-6 2-4 4h-2l1-8-3 1-3 4h-3l1-4-5 1 3-8h2l-2-8v-14h2l1 8 2-4 3-3 2-7 2-13z" fill="#F87301"/>
<path transform="translate(1246,441)" d="m0 0h5v3l-9 6-18-1-13 3-8 6-1 2h-2l-2 4-9 10-8 16-10 25-3 3-7 4-9 9h-3l1-8 5-22 4-12 10-14 9-11 10-9 13-8 12-4 8-1z" fill="#FB982C"/>
<path transform="translate(1552,290)" d="m0 0h1l-1 62-2 16-2 3-16-13-8-8-9-14-3-6v-3h-2l-1-7 2-1 22-1 3-1z" fill="#FB992D"/>
<path transform="translate(1587,644)" d="m0 0 1 3v7l1 3h3l-3-8 1-1h5l1 1v5l4 1v91h-4l1-6-6 3-3 3h-2l-2-23-3-27-2-27v-14l3-2 3-8z" fill="#BC5000"/>
<path transform="translate(1076,585)" d="m0 0 4 1-1 4h2v2l6-2v2h5v-2h2v2h10v2h2l1 4h1l1 13v11l-1 17-2 8-2-1-3 8-2 1-3-3 1-9 1-3h-2v2l-4-1-4-2-1 5-2 1-2-4-4-2 3-6 2-5-2-4-4-3v-3h-2l-2-3-1-22 1-6 2-1z" fill="#F0862D"/>
<path transform="translate(320,783)" d="m0 0h1v13l-3 20-3 7-9 9-8 10-9 14-7 15-7 21h-2l1-12-4 6-3-1v-20l3-10 7-12 12-16 13-19 10-15 6-8z" fill="#883400"/>
<path transform="translate(188,245)" d="m0 0h13l12 7 5 2h13l3 2 3 7 10 9 1 5-1 2h-2l-1 4-2 2h-16l-5-5-5-2-4 1-6 4-2-1 5-6 4-1v-2l-12-2-6-2v2l6 1-1 3-8 3-3 4-4-2h2l2-5 2-3 1-6-5-2-7-2v-11l3-3h3v-2z" fill="#F97503"/>
<path transform="translate(196,453)" d="m0 0 2 2 2 7-1 8-5 13 8-2 7-1-1 23-2 3-32 6h-5l-1 2v-10l5-12 2-14 1-20 16-3z" fill="#F97301"/>
<path transform="translate(0,797)" d="m0 0 5 4 9 4 10 11 13 19 5 8 8 19 4 8v2l-4-2-10-8-14-10-9-5 1-5 1-3-4 4-5-2-10-7z" fill="#883400"/>
<path transform="translate(70,699)" d="m0 0 5 5 7 10 9 19 4 11 5 23 3 22 2 21 2 8-3-3-11-21-10-23-4-14-5-25-4-26-1-6z" fill="#421200"/>
<path transform="translate(1029,591)" d="m0 0 3 1 1 5-5 2v6h6l1 9 1 1v5l-18 2-39 3h-6l-3 1v-2h-2l-1-12 4-2 1-3 7-1 14-3 28-7v-2z" fill="#F0862D"/>
<path transform="translate(252,587)" d="m0 0 3 1 2 10 8 24v12l-3 11-3 6h-4l-1-7-6 6-6-1-1-7-2-1-1-24-1-11v-11l1-6 12-1z" fill="#FB982D"/>
<path transform="translate(597,613)" d="m0 0 3 1 21 1 1 8 1 25-2 4-4-1v-6l-5 6-3-1 3-7 1-3-5 5-4 5-6-1-3 2h-5v-7l-2 1-2 7h-2v-2h-4l1-7 2-6-4 5h-2l1-8 4-7 11-9z" fill="#FA972C"/>
<path transform="translate(966,462)" d="m0 0h15l11 2 55 6 1 2-41 6-21 2h-26l-8-5-3-1h-21l-6-3 1-2 11-3 24-1 8-1z" fill="#FEC377"/>
<path transform="translate(150,387)" d="m0 0 3 1-1 4-5 1-3 9-2 7-1 17-4 8-11 9-10 9-2 1-1-2-2-21v-15l18-18 12-6 7-1z" fill="#FB9A2D"/>
<path transform="translate(1515,585)" d="m0 0h5l2 2 1 26-2 23-3 17-3 1 2-15-2 1-6 17h-2v-3h-3l-1 4h-3l-1-4-4 1 5-16 2-37 3-5 8-9z" fill="#FB982D"/>
<path transform="translate(121,555)" d="m0 0h11l1 9v16l-1 12-1 32-4 25-3 6h-3l-2-28-3-48v-17l3-6z" fill="#FB982D"/>
<path transform="translate(1563,280)" d="m0 0 5 5 9 13 3 5 4 3-1 8-4 15v19l-2 5-13 11h-1l-2-57v-26z" fill="#FB992D"/>
<path transform="translate(1032,404)" d="m0 0 4 1 4 6v2l19-2 2 1 2 9 3 8v13l-2 15-5-1-10-6-3-2v-2h-2l-6-8v-2h-2l-5-8v-16z" fill="#FB9A2D"/>
<path transform="translate(869,477)" d="m0 0h51l26 4 2 4-5 2-2 2-11-6-10-2h-14l-3 1v2l-14 4h-4v2l-10 2-2 5-9-2-3-2-43-1 2-5 7-4 4-3h9l3 1h11l1-1z" fill="#FEC376"/>
<path transform="translate(984,396)" d="m0 0h5l1 1 2 22 2-7 5-5 4-6 4 1 2 5h2l2 7h2l14 24 4 4v2l-6-2-20-8-14-7-4-1v-2l-7-1-10-21v-3l4-2z" fill="#FB9A2D"/>
<path transform="translate(1473,587)" d="m0 0h5l3 8 6 19 1 12-2 12-11 23-2-3-3-11-3-16-3-13 2-16 3-10z" fill="#FB982D"/>
<path transform="translate(1434,630)" d="m0 0 4 2 8 11 7 12 7 21 6 11 2 4-4-1-21-12-9-6-7-14-4-12v-2l6-1 2-5z" fill="#BC5000"/>
<path transform="translate(41,381)" d="m0 0h5l1 2-10 2h17l11 5 16 3 12 14 1 18-4-2-10-8-19-10-19-4-5-5-5-9 1-4z" fill="#FC9A2E"/>
<path transform="translate(44,870)" d="m0 0 5 2 13 12 10 8-1 5-9 14-5 7h-3l2-16 3-8-5 5-14 19-3 5h-3v-18l5-20z" fill="#883400"/>
<path transform="translate(31,784)" d="m0 0 4 1 6 10-2 4 1 11 4 22 1 11 5 13 5 12 2 7 15 13 3 3-1 3-9-7-10-9-9-7-8-7-11-8-10-5-5-1-2 6-9 16h-1v-38l10 6 5 2 4-4 2 1-4 8 6 2 10 7 16 12 5 4-9-19-6-14-12-17-7-9-6-7-10-5-4-4v-4l5 2 8 7 11 11 10 13 7 10v-4l-5-28-6-13z" fill="#3A1000"/>
<path transform="translate(348,604)" d="m0 0 18 6 4 1 17 1 27 9 13 7 8 6-3 1-5-3-8-2-3-2v2l-5 2-4-1-1 3-17 3-4 1-2-4-8-7-15-14-12-8z" fill="#F87301"/>
<path transform="translate(1516,657)" d="m0 0h2l-1 58-1 16-4-1-4-5-3-12v-5h-6l-4-4 1-6 18-40z" fill="#BC5000"/>
<path transform="translate(1398,328)" d="m0 0 5 2 12 10 5 5 5 4 5 3-2 1-8-2-10-1-36-1-8-11-6-9 19 1 14 1z" fill="#FB992D"/>
<path transform="translate(358,825)" d="m0 0h4l-1 14-6 17v8l3 7-1 6-6 9h-2l-8-17 1-9 5-13-9 14-3-4-2-6 1-5 13-13 9-7z" fill="#883400"/>
<path transform="translate(205,505)" d="m0 0 2 1v37l-6-9-5-3-12-1-9 3-5 1-1-1v-21z" fill="#FDD575"/>
<path transform="translate(1178,277)" d="m0 0h7l5 4v9l-5 5-5 2 1 4 2 3h3v2h-4l-1 2-10-3-7-5-13 1-5-3-1-4 4-5 14-10z" fill="#8F3800"/>
<path transform="translate(1473,309)" d="m0 0 4 2h8l6-1 7 15 5 12v3l-15-1-12-3-10-5-2-2-2-10-1-1v-5l8-1z" fill="#FB992D"/>
<path transform="translate(1125,392)" d="m0 0 3 3v2h2l7 12 18 1-1 7-9 14-14 14-4 1-2-13z" fill="#FC9B2F"/>
<path transform="translate(717,472)" d="m0 0h20l10 4 3 3-1 4-4 3-14 3h-20l-15-3-4-4 5-5 13-4z" fill="#FFC478"/>
<path transform="translate(540,593)" d="m0 0h15l5 1 1 4 3 1-2 9v4l3-10 3-6h2v12l-2 10-1-2h-18l-30-5 5-4 19-12z" fill="#F0852D"/>
<path transform="translate(1345,808)" d="m0 0 5 2 11 10 8 7 7 8 14 23 5 7v5l-3 1-2-1-3-5-7-9-8-10-3-4v-2l-4-1-12-9-14-9v-3l5-7z" fill="#883400"/>
<path transform="translate(84,581)" d="m0 0 1 3-3 6-1 10 3 12 8 21 1 9v8l-5 4-3-1 2-5 4-6-5 4-6 7h-4l-2-7 1-34 1-19 4-7z" fill="#FA982D"/>
<path transform="translate(1429,760)" d="m0 0 1 2-1 2v14l1 2 7-14 2-5h3v9l-5 6-6 6v10l1 2 7-12 1 2-6 11-2 4v23l-2 32-2 9h-2l-1-7 1-13-4 2-7 8-2 2h-4l2-4 10-9h2l2-5 1-11v-13l-3-22-1-3 1-2-1-6v-18h5z" fill="#320E01"/>
<path transform="translate(1388,397)" d="m0 0 4 1 5 4 2 1v2h10l7 3 7 6v2h2l5 7-1 3-9-3-20-3-16-6-5-3-2-5v-3l4-1 2-3h5z" fill="#FB9629"/>
<path transform="translate(1215,594)" d="m0 0 12 1 5 2-4 2v2l-8 2-8 1h-24l-12 2-23 1v-9l2 3 4-6h29z" fill="#F0862E"/>
<path transform="translate(202,490)" d="m0 0h6v13l-2 3-32 6h-5l-1 2v-10l5-12h18l2-1z" fill="#FB992C"/>
<path transform="translate(1295,334)" d="m0 0h7l9 3 17 10 11 6 9 5-1 2-11 2h-10l-9-2-12-12-8-6-4-5v-2z" fill="#FB962A"/>
<path transform="translate(107,363)" d="m0 0 6 2 4 5v2l9-1 1 3-2 5-1 11-8 7-5 4h-2l-1 3h-3l-2-8v-9l2-12 1-11z" fill="#FC9A2D"/>
<path transform="translate(1227,417)" d="m0 0h5l1 1h21v3l8-1 9 2-4 4-11 4-15 2-30 1 2-4 8-7z" fill="#FC9A2D"/>
<path transform="translate(1118,385)" d="m0 0 2 1v19l-1 30-1 7-5-3-5-6-1-5v-10l-3-12 1-5 9-11z" fill="#FB9A2D"/>
<path transform="translate(209,757)" d="m0 0 4 1-1 6-5 6-8 7-2 3 9 2v4h-14l-6 4-9 11-3 6 8 1 2 4-3 2h-16l-2 4-14 18-11 17h-2l1-5 12-17 8-10 12-14 8-11-2-4 1-6 2-6 5-1 1 1 1 8 17-17 3-9z" fill="#360F01"/>
<path transform="translate(66,532)" d="m0 0 3 1 2 21 1 6v14l-3 8h-2l-1-8-1-6h-6l-4 3-4 1-16-2-4-2 4-4 10-3 11-2h7l1-19z" fill="#F9B343"/>
<path transform="translate(328,852)" d="m0 0h2l3 13-1 7-8 15-9 15-2-1v-28l6-12z" fill="#883400"/>
<path transform="translate(0,473)" d="m0 0 7 1 10 7 20 1 11 5v2l-2 1-20 3h-21l-5-1z" fill="#FC9A2D"/>
<path transform="translate(152,441)" d="m0 0h2v7l-3 11-7 9-8 6-11 7-4 1v-5l4-5 3-12 10-9 11-8z" fill="#FB992C"/>
<path transform="translate(415,586)" d="m0 0 6 4 6 7v3h2l4 6v4l4 1 1 1v5l3-1 11 15 1 4-7-6-6-4-5-3-1-2-11-3-9-5v-15z" fill="#FB992C"/>
<path transform="translate(1200,402)" d="m0 0h6v2l-5 3-4 4-6 2-1 3-5 1v2l-12 4-10 1-4 1 3-10 3-5 2-5h15l5 1 3-2h5l1 4 2-4z" fill="#FEC674"/>
<path transform="translate(1066,588)" d="m0 0h2l2 4v33l-3-1-2-5-2-2v-4h-5l-1 5v4l-4-2-1-1-1-11 1-2v-9l-1-3 2-2 4 1h2v2l3-3z" fill="#F0872D"/>
<path transform="translate(1236,351)" d="m0 0h36l13 5-2 2-26 8h-6l-9-7-8-6z" fill="#F87301"/>
<path transform="translate(1293,421)" d="m0 0h7l8 4 7 3v2l-5 3-16 4-13 2-6-2-7-1 3-3 11-6 8-5z" fill="#FB992C"/>
<path transform="translate(1585,630)" d="m0 0h7l3 2 5 2v21l-4-1-1-5h-5l2 4v4h-3l-2-3v-9h-2l-3 9-3 1-1-23h6z" fill="#F18429"/>
<path transform="translate(264,854)" d="m0 0h2l-2 5-8 14-7 14-4-2-7-8-7-7v-2l22-7z" fill="#883400"/>
<path transform="translate(1337,422)" d="m0 0 5 2 16 12 14-1h10l6 2h7l5-1-2 3v2l-8 3-59-1-2-2 1-1h24l-4-6-13-11z" fill="#893400"/>
<path transform="translate(632,614)" d="m0 0 3 1 10 25v5l-5 7h-3v-2l-5 1v-6l-2 2-1 3h-2l1-13 3-22z" fill="#FA962C"/>
<path transform="translate(1159,299)" d="m0 0h5l9 6 9 3-1 4-7 10-4-1-15-8-3-1v-4l-2-3 3-3z" fill="#FDCC6B"/>
<path transform="translate(1239,530)" d="m0 0 4 1 9 18v5l-3-4-2-4-7-5-5-1-13 4-7 4-10 1-6 5-7 1 1-5 7-1 19-13 7-3z" fill="#F9B243"/>
<path transform="translate(466,577)" d="m0 0h3l-1 9-5 9-3-2-2 26-2-1-4-8-8-10v-2l-2-1 9-8 14-11z" fill="#F87201"/>
<path transform="translate(1599,536)" d="m0 0h1v16l-4 4h-2l-3 9-1 2h-3l-1 5h-2v2l-5 2 3-17 1-13z" fill="#FB992D"/>
<path transform="translate(1095,612)" d="m0 0h5l1 5-2 5h3v8l-1 2-5-1-1-3 1-2 4 1v-2h-5v2h-2l-2 7h2v2h2l1 3-8-2v-2h-2v-8h-2l-4-4-2-7-2-2z" fill="#FB992D"/>
<path transform="translate(1022,446)" d="m0 0 5 2 14 9-1 2-36-2-35-1v-1l13-1 10-3 31-3z" fill="#FB9A2D"/>
<path transform="translate(924,448)" d="m0 0 12 1 10 4 5 1v2l4 1v2l-2 1-20 1-6 2-6-1-6-4 2-5 4-4z" fill="#FEC476"/>
<path transform="translate(984,396)" d="m0 0h5l1 1 1 13v15l-9-2-10-21v-3l4-2z" fill="#FEC374"/>
<path transform="translate(1494,654)" d="m0 0h5l1 4 3-1 1-3h3v3h2l-2 9-4 8-7 10-4 4-1-1v-20z" fill="#BC5000"/>
<path transform="translate(1289,337)" d="m0 0 3 1 7 8 12 12h-8l-21-7-11-3v-2l10-6z" fill="#F97301"/>
<path transform="translate(1085,391)" d="m0 0h2l-1 5-8 14-3 6-7 10-3-4 1-6-3-1v-9l9-7 11-7z" fill="#FEC477"/>
<path transform="translate(1599,474)" d="m0 0h1v38l-12 6h-2l3-19 5-15z" fill="#FB992C"/>
<path transform="translate(1442,600)" d="m0 0h2l5 17 2 13v10h-2l-7-8-8-9 3-10z" fill="#BC5000"/>
<path transform="translate(404,636)" d="m0 0 12 2 10 3 10 4 2 4-11-3-10-5v5l-6-1-2-1-2 4-3 2-10 2v-4h-2l-3-5 1-4 9-2z" fill="#F87301"/>
<path transform="translate(101,725)" d="m0 0 5 4 2 9 1 13 3-4 4 1-1 7-2 4-4 1 2 30v30h-1l-6-78-4-8-1-6z" fill="#431300"/>
<path transform="translate(0,834)" d="m0 0 10 6 5 2 4-4 2 1-4 8 2 1-6 2-12 22h-1z" fill="#350F01"/>
<path transform="translate(196,409)" d="m0 0 10 3 8 3-1 3-19 7-12 3h-7l5-6 11-9z" fill="#FC9A2D"/>
<path transform="translate(1327,843)" d="m0 0 8 6 14 13v11h-2v-2l-5-2-5-4 1-7h-2l-1 4-5-1-8-6 4-11z" fill="#893400"/>
<path transform="translate(1410,643)" d="m0 0h5l3 5 2 6 1 14-2 2-5-4-11-14-4-6v-2z" fill="#BC5000"/>
<path transform="translate(1429,760)" d="m0 0 1 2-1 2v14l1 2 7-14 2-5h3v9l-5 6-6 6v10l1 2 7-12 1 2-6 11-3 4-3-8h-3v5h-1l-2-8 1-2-1-6v-18h5z" fill="#350F01"/>
<path transform="translate(1148,637)" d="m0 0 5 1 11 4 8 1 1 1-1 13-3-1-1-4-2-1-1 4-5 1v-9l-2 1-3 6-3 1v-2l-5 2 1-17z" fill="#F7902A"/>
<path transform="translate(515,586)" d="m0 0 2 1-4 5 1 4 2 2-14 9-12 11-8 10-9 11-2 3-2-1 7-11h2l2-5 9-11 4-8 15-15z" fill="#F0852B"/>
<path transform="translate(1022,530)" d="m0 0 6 2 8 4 17 1 1 3-2 4h-2v2l-3 1h-10v2h-3l-1-4 1-1h-3l-2-1v-2l-5-1-4-3 1-1-2-1v-2z" fill="#FA7E38"/>
<path transform="translate(94,360)" d="m0 0h3l-1 11-3 12-4 1-5-1-6-9 1-4 5-5 4-3z" fill="#FC9A2D"/>
<path transform="translate(143,597)" d="m0 0h1v28l-1 18-1 5 1 4h-2l-4-4-1-16 2-21 4-13z" fill="#F8932B"/>
<path transform="translate(218,869)" d="m0 0 3 1 5 14 5 17v5l-6 7-2 3h-3v-33z" fill="#883400"/>
<path transform="translate(0,299)" d="m0 0 4 1 8 4 8 2v2l3 1 1 5-1 2-8 1h-10l-5-3z" fill="#FCA034"/>
<path transform="translate(1539,772)" d="m0 0h2l-1 5-10 15-9 14-10 13-7 9-3-1 20-28 2-4-7 5-1-3 21-21z" fill="#320E01"/>
<path transform="translate(1570,279)" d="m0 0h6l4 10 5 6 5 1 6-2 4-2v21l-5-2-5-4-7-8-11-15z" fill="#FDD06F"/>
<path transform="translate(1474,719)" d="m0 0 4 2 4 8v12l-4 10-3-1v-15l-4 8-3-1-1-5 5-15z" fill="#BC5000"/>
<path transform="translate(22,468)" d="m0 0 23 1 3 9-1 4-5-1-9-3h-10l-3-6z" fill="#FB992D"/>
<path transform="translate(1044,587)" d="m0 0 1 4-3 6 5 1v17l-2 5-4-1-3-6v-10l-4-10v-3z" fill="#F0862D"/>
<path transform="translate(1213,644)" d="m0 0h5l4 1 8 1 2-1-2 5-6 6h-3v-3h-2l-2 4h-15l-2-1 1-6 4 3 3 1 2-7z" fill="#F08429"/>
<path transform="translate(171,804)" d="m0 0h2v3l9 1 2 4-3 2h-16l-2 4-14 18-11 17h-2l1-5 12-17 8-10 12-14z" fill="#320E01"/>
<path transform="translate(1235,354)" d="m0 0 7 4 9 7 6 1v1l-9 1h7l8-2 4 1-11 3-32 3-11 2h-7v-2l16-4 18-3h6l-3-3-8-6z" fill="#993D00"/>
<path transform="translate(1e3 401)" d="m0 0 4 1 2 5h2l3 7v3l-20 2-1-6 4-5 4-3z" fill="#FEC374"/>
<path transform="translate(16,848)" d="m0 0 7 1 10 7 16 12 10 9 11 9 5 5-1 3-9-7-10-9-9-7-8-7-11-8-14-7z" fill="#330E01"/>
<path transform="translate(71,375)" d="m0 0 3 1 5 11v3h-8l-10-4-7-4 1-3z" fill="#FC9A2D"/>
<path transform="translate(1434,720)" d="m0 0 4 1 1 2v18l-5 8-4-1v-21l3-6z" fill="#2E0D01"/>
<path transform="translate(58,533)" d="m0 0h3v15l-1-2-3-1-1-4-8 1v2l-17-1-3-2 2-2z" fill="#FAB847"/>
<path transform="translate(1037,435)" d="m0 0 21 1 6 1 1 3-1 3-14 4-6-1-7-10z" fill="#FEC376"/>
<path transform="translate(1587,311)" d="m0 0 7 5v5l-5 10-2 5-5 9h-1v-16l3-10z" fill="#FCCE6D"/>
<path transform="translate(735,672)" d="m0 0h2l6 26v5l-5 5h-3l-2-16v-9z" fill="#BC5000"/>
<path transform="translate(323,642)" d="m0 0 4 1-2 4 5 1v4l-4-1-4-3-2 8-3 1-1-6-4 5-4-1 1-4h-2l-1 3-5-1 3-5 1-4 6 1 2 1z" fill="#F0862C"/>
<path transform="translate(129,555)" d="m0 0h3v21l-4-4-1-2-4 1-1 1h-5v-8l5-7z" fill="#FAB746"/>
<path transform="translate(855,460)" d="m0 0h17l10 5 4 3v2l-17 1v-2h-3l-1-2-11-4-1-2z" fill="#FEC376"/>
<path transform="translate(1372,380)" d="m0 0h21l5 8-9-3-5-1h-7l-5 1-1 5 5 5 2 4-4 1-7-8-1-4-6-2v-2l7-3z" fill="#FB992D"/>
<path transform="translate(1456,729)" d="m0 0 4 4v9l-5 14-4 4-2-4 1-13 3-10z" fill="#431300"/>
<path transform="translate(650,276)" d="m0 0 10 1 9 4 6 2-4 2-3 3-9 2-12-1v-1l5-1-1-4v-2z" fill="#FEC372"/>
<path transform="translate(965,402)" d="m0 0 4 1 7 14v4l-5-1v-2l-5-1-5-5-9-7v-2h11z" fill="#FEC171"/>
<path transform="translate(1477,772)" d="m0 0h2l-1 16-1 2h-3l-11 25-5 12-3 5-1-4 6-15 13-30z" fill="#320E01"/>
<path transform="translate(223,458)" d="m0 0 5 5 3 5-2 7-8 10h-1l-2-12v-6l3-4z" fill="#F97301"/>
<path transform="translate(1037,588)" d="m0 0 3 1-1 1h-5l5 13v10l2 6h3l-2 7h-3v-8l-3 1-2-5-1-8-5-1v-6l4-2-1-7z" fill="#FB992D"/>
<path transform="translate(963,339)" d="m0 0h4l-2 7-1 3h-4v-2l-8-2-5 1-6 1-6-3-1-3 3-1z" fill="#FEC876"/>
<path transform="translate(1349,333)" d="m0 0 5 1 7 6 5 3 3 5-9-1-17-7-5-3v-1h9v-2z" fill="#FCC968"/>
<path transform="translate(775,830)" d="m0 0 2 1-9 13-6 10-7 15-1 3h-2l1-9 4-10-2 1 2-6 8-8 4-5z" fill="#310E01"/>
<path transform="translate(272,608)" d="m0 0h2l3 6 2 29-2 5-5-4-3-5 4-12v-12z" fill="#FB9B2E"/>
<path transform="translate(184,652)" d="m0 0h2l-1 7-8 13-2 4-3 3-2 12-2 1-1-14 1-14h2v-3h2v12l4-4 4-11z" fill="#7E2F00"/>
<path transform="translate(1388,397)" d="m0 0 4 1 6 5-1 3-12 6h-5l-3-6v-3l4-1 2-3h5z" fill="#FB982B"/>
<path transform="translate(163,638)" d="m0 0h3l2 6 2-3 1-2 3 1v9l-2 7h-4v7l-2-2-4-8v-14z" fill="#843200"/>
<path transform="translate(1423,843)" d="m0 0h2v11l-8 10-2 3h-3l-2-5v-5l10-10z" fill="#883400"/>
<path transform="translate(145,459)" d="m0 0h5l-4 7-8 7-14 8 3-10 16-11z" fill="#F97301"/>
<path transform="translate(446,790)" d="m0 0 7 1 11 5 24 9 15 6v1l-9-1-24-8-18-8-6-3z" fill="#310D01"/>
<path transform="translate(195,269)" d="m0 0 16 3 2 1v2l-12 8-1 2-7-1-3-2 1-4 2-2 7-2 1-2-6-1z" fill="#FDD676"/>
<path transform="translate(1168,845)" d="m0 0h2l-1 4-14 14-6 7-5-1-4 1 2-4 10-9 13-10z" fill="#320E01"/>
<path transform="translate(1450,776)" d="m0 0 2 2v7l-5 12-6 8-5 8-1-2 4-8 2-12 7-13z" fill="#340E01"/>
<path transform="translate(922,857)" d="m0 0 1 3-8 22-2 9-5 1-4 5 1-8 12-25z" fill="#330E01"/>
<path transform="translate(452,828)" d="m0 0 3 1-12 12-9 12-3-1v-2l-3-1 1-4 12-10z" fill="#320E01"/>
<path transform="translate(733,638)" d="m0 0 4 2 1 10-2 4h-2v-2l-9 2-2-7-2 3-1-8h9z" fill="#F0862C"/>
<path transform="translate(1390,373)" d="m0 0 3 3 8 11 9 11 7 6h-3l-3-2-1 2 4 1 6 5h-3l-2-2-6-2-10-1v-2l-5-2-6-5 3-1 6 4 11 3-4-6-10-13-4-6z" fill="#973C00"/>
<path transform="translate(1563,280)" d="m0 0 5 5 4 6v3h-2l-2 6-4 6h-2l-1-7v-18z" fill="#FDD575"/>
<path transform="translate(852,865)" d="m0 0 3 1-14 13-8 12-9 7-3 1 2-5 9-12 10-10z" fill="#320E01"/>
<path transform="translate(432,609)" d="m0 0 5 2 1 1v5l3-1 11 15 1 4-7-6-6-4-5-3-1-2-6-2 1-5z" fill="#F87705"/>
<path transform="translate(467,845)" d="m0 0h2l-1 5-5 12-6 18-2 2h-4l1-8 8-17z" fill="#320E01"/>
<path transform="translate(1206,408)" d="m0 0h5l3 3-1 4-6 5h-17l3-4h2v-2h3v-2z" fill="#FEC575"/>
<path transform="translate(906,841)" d="m0 0 3 1-14 14-10 15-1 2h-2l1-7 4-6-1-3 4-5z" fill="#320E01"/>
<path transform="translate(1575,808)" d="m0 0 2 1-10 7-11 7-11 8-10-2v-2l24-11z" fill="#340E01"/>
<path transform="translate(219,340)" d="m0 0 4 1 2 3 2-2 8 4-6 8-1 2-6-1-7-3 2-5h4l1-3-4-1z" fill="#FC9A2D"/>
<path transform="translate(1289,337)" d="m0 0 3 1 6 7v2l-11 2-7-1-4-1v-2l-2-1 12-6z" fill="#FB982C"/>
<path transform="translate(1275,631)" d="m0 0h1v23h-6l-2 3h-2v-9l4-10z" fill="#F1882D"/>
<path transform="translate(22,387)" d="m0 0 4 1 4 10v4l-2 1h-6l-8-5v-3l4-3h2z" fill="#FB9A2D"/>
<path transform="translate(1402,800)" d="m0 0 5 2 5 4 6 10v4l-6-2-10-9-1-7z" fill="#421200"/>
<path transform="translate(1064,440)" d="m0 0h1v10l-1 7-5-1-10-6-3-3 16-4h2z" fill="#FB9B2E"/>
<path transform="translate(1184,861)" d="m0 0h1l-1 7-6 15-1 10-2 2-1-6-5-2 1-5 4-8 3-1 6-11z" fill="#340E01"/>
<path transform="translate(180,779)" d="m0 0 4 1 1 8 4-3 1 2-5 5-8 9-3 6-2-4 5-7-2-4 1-6 2-6z" fill="#381001"/>
<path transform="translate(1499,643)" d="m0 0 7 1 2 2 4 1-3 10h-2v-3h-3l-1 4h-3l-1-4-4 1z" fill="#F0842B"/>
<path transform="translate(154,392)" d="m0 0h4v7l-7 9-6 10h-2l1-10 5-10z" fill="#FB992C"/>
<path transform="translate(1384,744)" d="m0 0h6l3 3 6 12v3l-5-1-8-7-2-3z" fill="#330E01"/>
<path transform="translate(1069,402)" d="m0 0 2 3v10l5-2-2 4-6 9-3-4 1-6-3-1v-9z" fill="#FB982B"/>
<path transform="translate(70,699)" d="m0 0 5 5 7 10 7 14-1 4-3-5-6-9-3-5-2-1v5l-2-1-3-13z" fill="#300D01"/>
<path transform="translate(207,335)" d="m0 0 5 1 5 3-2 6-4 6-7-2-1-2 3-11z" fill="#FC9A2D"/>
<path transform="translate(1439,761)" d="m0 0h3v9l-5 6-6 6v10l1 2 7-12 1 2-6 11-3 4-2-6-1-11-1-3v-14h1l1 13 1 2 7-14z" fill="#421200"/>
<path transform="translate(574,622)" d="m0 0 1 2-3 7v13l-3 6-7-5 1-6 6-11z" fill="#F0872D"/>
<path transform="translate(1400,746)" d="m0 0 5 1 5 6 3 9-2 5-6-5-6-12z" fill="#320E01"/>
<path transform="translate(1403,778)" d="m0 0 6 1 8 11-1 5-6-2-6-5-2-4v-5z" fill="#350F01"/>
<path transform="translate(692,643)" d="m0 0 4 1v4l4-1 3-1 1 8-5-1-2-3-2 4h-13l-3-1 1-4 3 1-1-5h2l1 7 2 1 2-9z" fill="#F0862D"/>
<path transform="translate(151,635)" d="m0 0 1 2 3-1 5 2 1 2v13l-5 6h-1l-1-11-3-6z" fill="#F0862E"/>
<path transform="translate(408,620)" d="m0 0 6 1 13 7 8 6-3 1-5-3-8-2-3-2v2l-5 2-3-8z" fill="#FA8414"/>
<path transform="translate(172,401)" d="m0 0 8 1 6 3 1 3-11 8-3 1-1-3v-10h3v-2z" fill="#FB9426"/>
<path transform="translate(1032,404)" d="m0 0 4 1 4 6v2l19-2 1 4-11 1h-17z" fill="#FECD74"/>
<path transform="translate(1063,860)" d="m0 0 1 3-8 25h-2l-1 4-6 4-2 2 1-6 8-14z" fill="#330E01"/>
<path transform="translate(1420,721)" d="m0 0 4 2 1 2v23l-3 3-1-1-2-18v-9z" fill="#320E01"/>
<path transform="translate(884,463)" d="m0 0h14l10 4 2 2-2 2-12 1-7-4z" fill="#FEC275"/>
<path transform="translate(213,277)" d="m0 0 7 1 4 4v2l6 2v1l-27-1 1-2h2v-2z" fill="#FB992C"/>
<path transform="translate(1200,402)" d="m0 0h6v2l-5 3-4 4-6 2-1 3-5 1v2l-2-1 4-12 3-2h5l1 4 2-4z" fill="#FBA032"/>
<path transform="translate(107,753)" d="m0 0h2v20l1 3 1 14v30h-1l-4-49v-17z" fill="#381000"/>
<path transform="translate(892,353)" d="m0 0h4v5l-2 1-18 1-5 2h-5l2-4 7-3z" fill="#FED076"/>
<path transform="translate(361,584)" d="m0 0 4 2 15 16 5 5 3 2h-10l-9-11z" fill="#F97301"/>
<path transform="translate(43,870)" d="m0 0 1 4-6 18-3 10-2-2v-5h-2v2h-2l1-5 6-10 6-11z" fill="#330E01"/>
<path transform="translate(194,651)" d="m0 0h2l-1 6-6 7-4 4-1 2v7l-4 6-6 3 2-6 10-19 4-7 3-1z" fill="#853200"/>
<path transform="translate(1142,311)" d="m0 0 10 2 4 4v2h-16l-8-1 1-3z" fill="#FCD070"/>
<path transform="translate(958,606)" d="m0 0h2l-6 18-8-8v-2l-4-2v-3l7 2 4 1 2-4z" fill="#FA972C"/>
<path transform="translate(382,639)" d="m0 0h8l2 10-3 4h-2v-7l-6 9h-3l1-10 1-3h2z" fill="#FA952A"/>
<path transform="translate(1070,548)" d="m0 0h7l10 6-2 5-7 2-4-5-2-2z" fill="#FB7F37"/>
<path transform="translate(1161,321)" d="m0 0 4 1 5 3-1 2-9-1-6 4-8-1-5-5v-1h10z" fill="#FCA83E"/>
<path transform="translate(1121,854)" d="m0 0 1 2-4 14-1 13-4 2h-3l1-4 3-6-5 4h-3v-3l7-4 6-15z" fill="#310D01"/>
<path transform="translate(800,858)" d="m0 0 1 4-9 27-6-2 1-5 10-18z" fill="#330E01"/>
<path transform="translate(1405,713)" d="m0 0 3 1 4 13 1 11-5-5-4-9-1-9z" fill="#310D01"/>
<path transform="translate(391,584)" d="m0 0 2 1 5 13 5 8-2 2-12 1v-1h5l-3-17z" fill="#F97301"/>
<path transform="translate(1038,834)" d="m0 0 2 1-8 11-6 10-2 4h-2l1-6h-2l1-5 10-10z" fill="#310E01"/>
<path transform="translate(1477,638)" d="m0 0 2 1v13l-4 9-2-3-3-11 1-3h3l2-4z" fill="#F0852C"/>
<path transform="translate(1118,385)" d="m0 0h1v15l-1 1-12 1v-3l5-5z" fill="#FECF76"/>
<path transform="translate(1336,367)" d="m0 0h7l4 6 7 2 1 2-1 2-10-1-6-4-3-4z" fill="#FB9B2E"/>
<path transform="translate(1298,836)" d="m0 0 2 1-7 14-2 10-2 1-1-6h-3l1-5 8-11z" fill="#310E01"/>
<path transform="translate(601,642)" d="m0 0h2l2 4v3l-4 1-3-1-3 2h-5v-7l-2 1-2 7h-2v-2h-4l1-4 1 1 2-4h7l1 4 6-2z" fill="#F18225"/>
<path transform="translate(368,612)" d="m0 0h12l4 4 7 11-1 2-4-2-8-9-10-5z" fill="#FB992D"/>
<path transform="translate(161,816)" d="m0 0 3 1-12 15-14 21h-2l1-5 12-17 8-10z" fill="#360F01"/>
<path transform="translate(1012,637)" d="m0 0 5 2-4 6-6 4v-2l-3 1-2 4h-2l1-6 2-6h5z" fill="#F0852D"/>
<path transform="translate(1018,404)" d="m0 0h10v12h-5l-3-2-4-9z" fill="#FEC275"/>
<path transform="translate(1336,636)" d="m0 0h5l4 3 1 4-3 3-3 1-1 4-5-1 1-8z" fill="#F0872D"/>
<path transform="translate(720,859)" d="m0 0 4 4 2-3 3 1-5 8-2 12h-1v-6l-6 1 1-6z" fill="#340E01"/>
<path transform="translate(31,784)" d="m0 0 4 1 6 10-2 4h-2v2h-2l-5-10z" fill="#330E01"/>
<path transform="translate(356,642)" d="m0 0 11 3 1 3-3 4-5-1-5 2-3-3 2-2v-5z" fill="#F0852D"/>
<path transform="translate(1404,820)" d="m0 0 5 1 6 5 5 8 1 4-11-7-6-6z" fill="#320E01"/>
<path transform="translate(142,376)" d="m0 0 5 5 1 4-11 7-4 1 2-6 5-7z" fill="#FC9A2D"/>
<path transform="translate(818,721)" d="m0 0 12 1v4l-2 3-6 3-4-1-1-9z" fill="#BC5000"/>
<path transform="translate(9,890)" d="m0 0h2l-1 9-3 11-7 2v-6l5-8z" fill="#320E01"/>
<path transform="translate(925,480)" d="m0 0h17l5 2 1 3-5 2-2 2-11-6-5-2z" fill="#FEC478"/>
<path transform="translate(97,725)" d="m0 0h2l3 11v7l-6 4-1-6v-11z" fill="#B74D00"/>
<path transform="translate(1451,308)" d="m0 0 6 2 3 9 1 8-4-2-3-3-3-9z" fill="#FCC664"/>
<path transform="translate(1085,627)" d="m0 0h1v8h2v2l3-1 5 3v3l-4-1-4-2-1 5-2 1-2-4-4-2 3-6z" fill="#F2892C"/>
<path transform="translate(1514,593)" d="m0 0 4 2 4 4v5l-1 1-9-1-3-2 2-6z" fill="#F0862E"/>
<path transform="translate(1110,384)" d="m0 0h2l-2 5-8 11-3 3h-3v-4h-2v4h-3l1-5 1-4h3v2l8-1v-3h2l2-5z" fill="#FECF74"/>
<path transform="translate(1084,833)" d="m0 0 3 4 7 15v4l-6-1-2-4-2-12z" fill="#330E01"/>
<path transform="translate(935,433)" d="m0 0 4 1 8 7 5 7h-7v-2h-7v-3h3l-1-4-4-2z" fill="#FDD073"/>
<path transform="translate(1100,406)" d="m0 0 3 1 3 10v10l-3-2-6-13v-4z" fill="#FC9A2D"/>
<path transform="translate(74,636)" d="m0 0 3 3v2l4 1 1 5 3 1-5 5h-4l-2-7z" fill="#F0852B"/>
<path transform="translate(494,610)" d="m0 0 1 3-9 10-9 11-6 8-2-1 7-11h2l2-5 9-11 3-3z" fill="#F9AE49"/>
<path transform="translate(1372,435)" d="m0 0h10l10 3v1h-32l-2-2z" fill="#BC5000"/>
<path transform="translate(1410,401)" d="m0 0 9 5 8 7 6 7 2 7-8-6-2-5h-2l-7-9-6-3z" fill="#622200"/>
<path transform="translate(1500,869)" d="m0 0 1 2-4 7-11 12h-3l2-5 9-11z" fill="#8A3500"/>
<path transform="translate(666,843)" d="m0 0 1 3-3 13-1 11-6 1 1-7 7-20z" fill="#320E01"/>
<path transform="translate(519,640)" d="m0 0 1 2 6-1-1 14-3 1v-3l-5-1 1-9-1-2z" fill="#F2882A"/>
<path transform="translate(1486,581)" d="m0 0h3l1 6v8l-2 5-2-2-4-13 1-3z" fill="#FA9328"/>
<path transform="translate(990,863)" d="m0 0 1 3-6 13-2 6-3-1-1-6 5-9z" fill="#330E01"/>
<path transform="translate(955,857)" d="m0 0 1 3-3 9-1 8-5 1-3-1 1-4 9-15z" fill="#330E01"/>
<path transform="translate(1148,637)" d="m0 0 5 1 4 3-3 1v13h-2v-2l-5 2 1-17z" fill="#F18529"/>
<path transform="translate(277,627)" d="m0 0h1l1 16-2 5-5-4-3-5 3-9h1v5h2v4h2z" fill="#F38B2C"/>
<path transform="translate(484,641)" d="m0 0 2 4 4 5-3 9h-3v-2l3-3v-4l-5 3-2 2h-4l2-6z" fill="#F68D28"/>
<path transform="translate(408,633)" d="m0 0 10 2 2 1-1 2-3-1h-12l-17 3-4-1 6-3 9-2z" fill="#A34200"/>
<path transform="translate(458,599)" d="m0 0h1l-1 20-2-1-4-8-2-2 1-4z" fill="#FB9022"/>
<path transform="translate(1398,403)" d="m0 0 1 2h6v1l-9 2-3 2h14l2 2-1 1h-20l-4 1-2-2 15-7z" fill="#F97301"/>
<path transform="translate(229,620)" d="m0 0 2 2 2 6 1 7v8l-2 4h-2l-1-14z" fill="#F7902A"/>
<path transform="translate(1578,329)" d="m0 0h1l1 8h1l1 7 4-8 1 2-1 4 2 1-6 11-2-4-2 2z" fill="#983D00"/>
<path transform="translate(1295,334)" d="m0 0h7l8 4-4 2-4 1v2l-5-1-4-5v-2z" fill="#FDD06F"/>
<path transform="translate(630,818)" d="m0 0 2 2 7 16v5l-5 2-1-7-1-1-2-12z" fill="#340E01"/>
<path transform="translate(1393,429)" d="m0 0 13 1v3l-12 5-2-1v-7z" fill="#FB9224"/>
<path transform="translate(415,586)" d="m0 0 5 4h-2v23l-4-2v-14z" fill="#F97301"/>
<path transform="translate(1494,579)" d="m0 0 12 1-2 5-6 7h-2z" fill="#F9982F"/>
<path transform="translate(510,539)" d="m0 0 2 1-10 10-5 7-11 6 2-4 9-9 11-9z" fill="#943A00"/>
<path transform="translate(1012,434)" d="m0 0h9l7 2 5 6v2l-6-2-13-5z" fill="#FDBA5F"/>
<path transform="translate(195,778)" d="m0 0h2v2l9 2v4h-17l2-4z" fill="#310E01"/>
<path transform="translate(520,706)" d="m0 0h2l-1 4-7 9-2 3 13-1v1l-5 1h-19v-1h7l2-4z" fill="#883400"/>
<path transform="translate(150,643)" d="m0 0 3 1 2 4v16l-3-2-3-12z" fill="#903800"/>
<path transform="translate(1327,433)" d="m0 0h14l-3 2-21 3h-10l2-3z" fill="#FA9529"/>
<path transform="translate(1552,290)" d="m0 0h1l-1 10-3 7-6 3-2 2 1-5z" fill="#FDD272"/>
<path transform="translate(57,894)" d="m0 0h2l-3 9-2 5-5 3-3 3h-2l1-4 9-12z" fill="#320E01"/>
<path transform="translate(101,725)" d="m0 0 5 4 1 2v10l-3 1-4-8-1-6z" fill="#310E01"/>
<path transform="translate(66,532)" d="m0 0 3 1v20l-4 1v-20z" fill="#FCC867"/>
<path transform="translate(1432,736)" d="m0 0 5 1 2-1-1 7-4 6-4-1 1-11z" fill="#431300"/>
<path transform="translate(368,610)" d="m0 0h29l4 3-1 2-13-2-17-1z" fill="#993D00"/>
<path transform="translate(0,837)" d="m0 0 5 2 7 5v3l-5 1-7-2z" fill="#883400"/>
<path transform="translate(1096,639)" d="m0 0 4 1 1 3 3 1-2 9-3 2-3-3 1-9 1-3z" fill="#F97301"/>
<path transform="translate(411,557)" d="m0 0 3 1 3 5 2-4h1v7l-2 4-3 1-3-3-1-2z" fill="#F87301"/>
<path transform="translate(937,340)" d="m0 0h16v1l-7 1 7 1 1 2h-6l-3 2-5-1-5-2-1-3z" fill="#FEC571"/>
<path transform="translate(61,822)" d="m0 0 5 3 7 7v3l-8-2-5-6z" fill="#320E01"/>
<path transform="translate(1165,301)" d="m0 0 8 4-5 5-3 1-6-3v-6z" fill="#FB992E"/>
<path transform="translate(618,892)" d="m0 0 3 1 5 12 1 8h-3l-5-13z" fill="#883400"/>
<path transform="translate(386,564)" d="m0 0 6 2 13 7 6 4v3l-5-1-20-14z" fill="#993D00"/>
<path transform="translate(1433,306)" d="m0 0 12 1 3 6v4l-4-2-11-7z" fill="#FDD271"/>
<path transform="translate(153,673)" d="m0 0 4 2 4 5v11l-3-1-4-11z" fill="#873300"/>
<path transform="translate(1593,324)" d="m0 0h2l-1 8-6 10-4 2 3-9 3-7z" fill="#6B2700"/>
<path transform="translate(857,366)" d="m0 0 1 4-5 9-3 1h-7v-3l10-6 3-2z" fill="#FBA133"/>
<path transform="translate(115,847)" d="m0 0 3 3 1 11v16l-2 1-2-18z" fill="#330E01"/>
<path transform="translate(181,634)" d="m0 0 3 1v6l-1 2h-2l-2 9-4 7-1-2 3-8 2-13z" fill="#682500"/>
<path transform="translate(1217,860)" d="m0 0 1 4-5 16-5-2 1-4z" fill="#340E01"/>
<path transform="translate(1240,849)" d="m0 0 5 2 8 5-1 4-4 1-5-5-3-5z" fill="#310E01"/>
<path transform="translate(638,640)" d="m0 0 2 1v5l2 3-2 3h-3v-2l-5 1v-7h2v-2z" fill="#F0862E"/>
<path transform="translate(194,640)" d="m0 0 5 1 1 1v5l2 1h-3l-1-5h-1l-3 9-3-1-2-4 1-4 4-1z" fill="#F18225"/>
<path transform="translate(1455,595)" d="m0 0h4l-2 12-1 3h-2l-2-5v-8z" fill="#FA982D"/>
<path transform="translate(1094,399)" d="m0 0h2v4l2 1-8 7-2 2h-3l1-5 4-7 1 2h3z" fill="#F9962B"/>
<path transform="translate(212,640)" d="m0 0h3v2l3 1-5 5-9-1v-3z" fill="#F18226"/>
<path transform="translate(853,880)" d="m0 0 2 1-7 11-1 3h-2v2l-4-2 1-4z" fill="#320E01"/>
<path transform="translate(1578,589)" d="m0 0h1l1 20-1 4h-2l-1-5v-17z" fill="#F9952D"/>
<path transform="translate(268,853)" d="m0 0h1v7h-2l-1 4-5 5-3 2 1-6 7-10z" fill="#310D01"/>
<path transform="translate(1e3 647)" d="m0 0h3l-1 8-10 6-2-1 3-5 2-5 1 2h2z" fill="#BA4F00"/>
<path transform="translate(1271,362)" d="m0 0h6l-3 2-19 5h-16v-1l7-1h11v-2z" fill="#501900"/>
<path transform="translate(1414,341)" d="m0 0 6 4 5 4 5 3-2 1-15-4z" fill="#FDC866"/>
<path transform="translate(194,269)" d="m0 0 1 2 6 1-1 3-8 3-3 4-4-2h2l2-5 4-5z" fill="#FA8818"/>
<path transform="translate(717,642)" d="m0 0 4 1v10l-2 3-3-1-1-2 1-9z" fill="#F8942D"/>
<path transform="translate(1105,611)" d="m0 0h4v11l-2 4h-2l-2-10v-4z" fill="#FC9A2D"/>
<path transform="translate(1055,550)" d="m0 0h7l-1 7-5 5v-3l-4-5 1-2h2z" fill="#FB7E38"/>
<path transform="translate(1425,837)" d="m0 0 1 3-1 3-12 12h-4l2-4 10-9h2z" fill="#370F01"/>
<path transform="translate(182,688)" d="m0 0 4 1-4 7-10 6 2-5 7-8z" fill="#883400"/>
<path transform="translate(238,349)" d="m0 0 5 1 1 2-8 7h-5l1-5z" fill="#FC9A2D"/>
<path transform="translate(1320,865)" d="m0 0 4 2 3 4-1 7-4 1-2-9z" fill="#883400"/>
<path transform="translate(1423,860)" d="m0 0h2l-2 10-3 6-3-1 1-7 4-7z" fill="#883400"/>
<path transform="translate(0,793)" d="m0 0 5 2 8 7 2 3-4-1-7-3-4-4z" fill="#330E01"/>
<path transform="translate(1439,761)" d="m0 0h3v9l-5 6h-2l1-7z" fill="#310E01"/>
<path transform="translate(184,652)" d="m0 0h2l-1 7-7 11-2-1 4-11z" fill="#883400"/>
<path transform="translate(1222,369)" d="m0 0h4l1 3-14 3h-7v-2z" fill="#953B00"/>
<path transform="translate(1207,267)" d="m0 0h2l4 9v4l-4-2-5-4-1-4z" fill="#FCD172"/>
<path transform="translate(199,863)" d="m0 0 1 4-3 12-3 2-3-1 1-5z" fill="#360F01"/>
<path transform="translate(45,846)" d="m0 0 2 3 8 19v6l-2-2-2-6-6-13-1-5z" fill="#3A1000"/>
<path transform="translate(502,842)" d="m0 0 1 3-4 11h-2l-2 4-3 1 1-5 8-13z" fill="#370F01"/>
<path transform="translate(1394,695)" d="m0 0 1 2-3 5-2 1-3 5-6 7-4 1 1-3 4-4 3-4h2v-3l2-1 2-4z" fill="#722900"/>
<path transform="translate(408,620)" d="m0 0 6 1 2 6-3 5h-2l-3-8z" fill="#FB9629"/>
<path transform="translate(1096,528)" d="m0 0 2 4 2 9-2 2-5-5-1-4 2-5z" fill="#FB7D39"/>
<path transform="translate(1451,744)" d="m0 0 1 4 3 1v7l-4 4-2-4v-7z" fill="#320E01"/>
<path transform="translate(1161,418)" d="m0 0 1 2 5-1h15l-3 2-6 2-10 1-4 1z" fill="#FBA83B"/>
<path transform="translate(1580,349)" d="m0 0 2 2-1 4-10 8h-2l1-5 7-6h2z" fill="#541B00"/>
<path transform="translate(1029,640)" d="m0 0 3 1v13l-1 2-4-1 1-9z" fill="#F8932B"/>
<path transform="translate(1055,571)" d="m0 0 4 1 1 3-5 5h-4l-2-2z" fill="#FB7D39"/>
<path transform="translate(1235,354)" d="m0 0 7 4 9 7 6 1v1h-10l-4-4-8-6z" fill="#933A00"/>
<path transform="translate(155,417)" d="m0 0h1v12l-8 2 1-5z" fill="#FB982B"/>
<path transform="translate(1408,810)" d="m0 0 5 2 4 2 1 6-6-2-6-5v-2z" fill="#330E01"/>
<path transform="translate(182,670)" d="m0 0h1l1 7-4 6-6 3 2-6 5-9z" fill="#803000"/>
<path transform="translate(896,517)" d="m0 0 6 1 5 2 12 1-2 2-9 1-11-4z" fill="#F97301"/>
<path transform="translate(1427,312)" d="m0 0 4 1 1 2-4 5-5 2v3h-2l1-6z" fill="#FDCF6E"/>
<path transform="translate(813,885)" d="m0 0 1 4-3 10-7 1 2-5z" fill="#330E01"/>
<path transform="translate(765,883)" d="m0 0h1l-1 8-3 7-3 1-2-1 2-5z" fill="#330E01"/>
<path transform="translate(63,531)" d="m0 0h2l-1 22-1 5h-1v-26z" fill="#A74500"/>
<path transform="translate(1388,395)" d="m0 0 4 1 8 4 8 2 1-2v3h-3v2h-7v-2l-5-2-6-5z" fill="#A74400"/>
<path transform="translate(206,283)" d="m0 0 20 1 4 2v1l-27-1z" fill="#FED878"/>
<path transform="translate(228,422)" d="m0 0h6l1 2-6 2-12 1-8-2v-1h13z" fill="#F97301"/>
<path transform="translate(1354,330)" d="m0 0 5 1 5 10-4-1-7-6-3-2z" fill="#CD711E"/>
<path transform="translate(1456,729)" d="m0 0 4 4-1 7-2-1-3-1-2 2 1-7z" fill="#300D01"/>
<path transform="translate(142,708)" d="m0 0 2 1 7 16v2l-3-1-7-13z" fill="#BC5000"/>
<path transform="translate(1194,644)" d="m0 0h5l1 5-4 7h-2l-1-7v-3z" fill="#F2872B"/>
<path transform="translate(12,469)" d="m0 0 5 1 2 4v4l-5-1-5-5v-2z" fill="#FB992D"/>
<path transform="translate(1301,438)" d="m0 0h4l-1 3-12 4-5-1 1-2z" fill="#FA972C"/>
<path transform="translate(671,284)" d="m0 0h4l-1 4 4-3v5h-2v2l-11-3 3-2h2z" fill="#FED878"/>
<path transform="translate(112,747)" d="m0 0 4 1-1 7-2 4h-3v-8z" fill="#330E01"/>
<path transform="translate(90,641)" d="m0 0 3 1v8l-5 4-3-1 2-5 3-4z" fill="#F8922A"/>
<path transform="translate(84,581)" d="m0 0 1 3-4 8-2 8-2-2v-8z" fill="#FCC967"/>
<path transform="translate(531,573)" d="m0 0 2 1-12 9-7 2 1-4z" fill="#963B00"/>
<path transform="translate(801,242)" d="m0 0h3v5 3h-6l-2-2 1-4z" fill="#FFC478"/>
<path transform="translate(542,878)" d="m0 0h3l-2 6-3 3h-6l2-4z" fill="#320E01"/>
<path transform="translate(925,480)" d="m0 0h7l2 1 11 1 1 2-5 1h-7l-9-4z" fill="#FED578"/>
<path transform="translate(1097,525)" d="m0 0 2 2 3 11v7l-5-1-1-2 3-1-2-9z" fill="#F38B2D"/>
<path transform="translate(1085,391)" d="m0 0h2l-1 5-2 1-6 1-4 5-3 1 2-4 5-5z" fill="#FED378"/>
<path transform="translate(184,828)" d="m0 0h1l-1 9-3 2-4-5 5-5z" fill="#310E01"/>
<path transform="translate(1343,808)" d="m0 0h2l-1 5-5 6-4 2-2-1v-2l7-6z" fill="#320E01"/>
<path transform="translate(181,698)" d="m0 0 3 1-1 4-8 8h-2l2-6z" fill="#722900"/>
<path transform="translate(132,370)" d="m0 0h3l-1 5-6 9-1-4 3-8z" fill="#FC9A2D"/>
<path transform="translate(200,334)" d="m0 0 3 1-1 8-4 2-2-2 1-5z" fill="#FB9E31"/>
<path transform="translate(1402,800)" d="m0 0 5 2 2 5h-2v2h-5l-1-7z" fill="#330E01"/>
<path transform="translate(631,675)" d="m0 0 7 1 4 4v3l-4-2-7-1-1-4z" fill="#310E01"/>
<path transform="translate(707,644)" d="m0 0h7l-5 10h-2l-2-7z" fill="#F1872C"/>
<path transform="translate(584,643)" d="m0 0h7v5l-1-4-2 1-2 7h-2v-2h-4l1-4 1 1z" fill="#F1862C"/>
<path transform="translate(1153,640)" d="m0 0 6 2-1 4-3 8h-2z" fill="#FB982D"/>
<path transform="translate(886,469)" d="m0 0 4 2v2h-11l-10-1v-1z" fill="#FB9F31"/>
<path transform="translate(855,460)" d="m0 0h17l1 2-12 1-4 1-4-2z" fill="#FED078"/>
<path transform="translate(909,459)" d="m0 0 4 1 5 3v2l-7-1-8-2 1-2z" fill="#FED178"/>
<path transform="translate(964,340)" d="m0 0h2v5l-2 4h-4v-2l-5-2v-1h7z" fill="#FDCF70"/>
<path transform="translate(1206,545)" d="m0 0 2 1-9 8-7 1 1-5 7-1z" fill="#F9B147"/>
<path transform="translate(1028,873)" d="m0 0h1v11h-7l2-5z" fill="#310D01"/>
<path transform="translate(574,622)" d="m0 0 1 2-4 9-1 6-3-1 1-8z" fill="#F7902B"/>
<path transform="translate(5,399)" d="m0 0 5 2 1 3-11 2v-5z" fill="#FBA536"/>
<path transform="translate(347,846)" d="m0 0 1 2-6 13-4 2 2-6 6-10z" fill="#381000"/>
<path transform="translate(1190,404)" d="m0 0 3 1-3 3-2 6 3 1-6 2v2l-2-1 4-12z" fill="#FB9B2D"/>
<path transform="translate(1478,835)" d="m0 0 1 2-5 8h-2l-2 5-2 1 1-5 7-10z" fill="#340E01"/>
<path transform="translate(147,856)" d="m0 0v3l-11 13-1 2-2-1 7-11z" fill="#883400"/>
<path transform="translate(1269,640)" d="m0 0h2l-2 16-3 1v-9z" fill="#F7922D"/>
<path transform="translate(1169,644)" d="m0 0h4l-1 13-3-1-1-10z" fill="#F8942D"/>
<path transform="translate(648,523)" d="m0 0 6 1 3 7v3l-5-3-4-6z" fill="#963D02"/>
<path transform="translate(916,477)" d="m0 0 17 2 1 2h-14l-12-1v-1l8-1z" fill="#FDB75C"/>
<path transform="translate(1161,321)" d="m0 0 4 1 5 3-1 2-9-1-4-2v-2z" fill="#FCCC6D"/>
<path transform="translate(1475,865)" d="m0 0 1 3-5 11h-2l1-7 4-6z" fill="#883400"/>
<path transform="translate(405,585)" d="m0 0 3 1 3 8-1 3-3-1-3-10z" fill="#F97301"/>
<path transform="translate(1460,312)" d="m0 0h9v1h-8l3 12h-2v3l-2-1-1-12z" fill="#AC4B05"/>
<path transform="translate(1112,875)" d="m0 0h2l-2 6-3 6-3-3 1-4z" fill="#8B3600"/>
<path transform="translate(120,632)" d="m0 0h1l2 20 3-5 1 2-3 6h-3l-1-15z" fill="#F08429"/>
<path transform="translate(914,456)" d="m0 0 7 5-2 5h-5l4-1-3-3-5-4z" fill="#FB9427"/>
<path transform="translate(993,396)" d="m0 0 4 1 2 2-1 5-4 2z" fill="#FED075"/>
<path transform="translate(629,753)" d="m0 0 1 3-7 10h-2l1-5z" fill="#320E01"/>
<path transform="translate(1164,643)" d="m0 0h8l-3 1v8l-4-1z" fill="#F18328"/>
<path transform="translate(1326,642)" d="m0 0h7l-2 6-1 2h-3v-6l-2-1z" fill="#F0862D"/>
<path transform="translate(575,858)" d="m0 0h1v10h-5v-4z" fill="#300D01"/>
<path transform="translate(661,692)" d="m0 0 8 1 9 4-1 3-5-3-8-2z" fill="#330E01"/>
<path transform="translate(512,644)" d="m0 0 2 1v12h-2v-4h-2l-1-4z" fill="#F38729"/>
<path transform="translate(174,638)" d="m0 0h5l-1 9h-3l-2-7z" fill="#F37F1E"/>
<path transform="translate(1057,411)" d="m0 0 3 1v3h-13l2-3z" fill="#FED578"/>
<path transform="translate(1404,396)" d="m0 0 4 4v2l-8-1-4-2v-1l7-1z" fill="#F8942D"/>
<path transform="translate(165,362)" d="m0 0 3 2 2 5v6l-1-2h-2l-4-9z" fill="#9B3E00"/>
<path transform="translate(1085,227)" d="m0 0 3 3-2 4-5-1-1-4z" fill="#FFC478"/>
<path transform="translate(799,719)" d="m0 0h7l2 1-4 8h-3v-3h3l-1-3-4-1z" fill="#BC5000"/>
<path transform="translate(307,646)" d="m0 0 3 1-4 7-5-1 3-5z" fill="#F9952D"/>
<path transform="translate(387,643)" d="m0 0 4 1 1 5-3 4h-2v-7z" fill="#FA8C1D"/>
<path transform="translate(676,535)" d="m0 0 9 6v3l-7-1z" fill="#FAB847"/>
<path transform="translate(618,892)" d="m0 0 3 1 3 6 1 11-2-2-2-11h-2z" fill="#A34200"/>
<path transform="translate(408,633)" d="m0 0 10 2 2 1-1 2-3-1-15-1 1-2z" fill="#883400"/>
<path transform="translate(568,597)" d="m0 0h1v8l-2 5-2-1v-7z" fill="#FA972D"/>
<path transform="translate(1471,589)" d="m0 0 3 3 3 1 1 4-4 2-3-3-1-5z" fill="#F0862D"/>
<path transform="translate(0,850)" d="m0 0 6 1-1 5-5 1z" fill="#883400"/>
<path transform="translate(1038,834)" d="m0 0 2 1-3 3v-3zm-3 3m-1 1m-2 1 2 1-12 12v-3z" fill="#380F01"/>
<path transform="translate(99,801)" d="m0 0 4 4 4 11-1 2-7-13z" fill="#380F01"/>
<path transform="translate(1320,759)" d="m0 0 4 2 4 3-2 4-3-1-3-5z" fill="#370F01"/>
<path transform="translate(535,643)" d="m0 0v3 7h-2l-1-2-4-1-1-6 3 3h2v-2z" fill="#F0842A"/>
<path transform="translate(1337,422)" d="m0 0 5 2 10 7-3 2-11-9z" fill="#B64C00"/>
<path transform="translate(1121,854)" d="m0 0 1 2-4 14-3-1 1-5z" fill="#391000"/>
<path transform="translate(331,851)" d="m0 0h3l1 8-2 3v-2h-2z" fill="#320E01"/>
<path transform="translate(1233,649)" d="m0 0 4 1-1 4-2 2h-4l1-4z" fill="#F7922D"/>
<path transform="translate(1065,614)" d="m0 0 4 1v10l-2-1-2-5-1-4z" fill="#F9962D"/>
<path transform="translate(1191,405)" d="m0 0h2v6l-4 4-2-1 3-8z" fill="#FFC478"/>
<path transform="translate(1406,754)" d="m0 0 3 2 2-1 2 7-2 2-4-5-2-4z" fill="#431300"/>
<path transform="translate(160,663)" d="m0 0 3 3 1 9-4-4-1-6z" fill="#883400"/>
<path transform="translate(1369,571)" d="m0 0h2l2 4-1 4h-6l2-1-1-3z" fill="#BF5200"/>
<path transform="translate(1030,534)" d="m0 0 6 2 17 1v1l-20 1v-3l-3-1z" fill="#FC9A2D"/>
<path transform="translate(1023,409)" d="m0 0h2v2h2l1 5h-5l-2-4z" fill="#FED578"/>
<path transform="translate(1065,404)" d="m0 0h3l-2 9h-3v-7z" fill="#FECF74"/>
<path transform="translate(1110,384)" d="m0 0h2l-2 5-6 9-1-2-2-1h3v-3h2l2-5z" fill="#FDC66A"/>
<path transform="translate(186,362)" d="m0 0 3 1-2 5-5 5v-5z" fill="#943A00"/>
<path transform="translate(1362,330)" d="m0 0 8 1-1 4-4 1-3-4z" fill="#FDD171"/>
<path transform="translate(1487,310)" d="m0 0h4l1 5-8-1-2-2z" fill="#FDCE6C"/>
<path transform="translate(194,269)" d="m0 0 1 2 6 1-1 3-6 1-2-6z" fill="#FA9526"/>
<path transform="translate(77,900)" d="m0 0 3 1-1 6-2 3h-2l1-8z" fill="#9B3E00"/>
<path transform="translate(694,854)" d="m0 0h2l-1 7h-5l-2 1 2-4z" fill="#320E01"/>
<path transform="translate(1149,644)" d="m0 0 3 1-2 9-3 1 1-9z" fill="#FA9024"/>
<path transform="translate(221,640)" d="m0 0h3l-1 7-4 2-1-2z" fill="#F7932D"/>
<path transform="translate(496,605)" d="m0 0 4 1-3 5-5 1v-3z" fill="#FB992D"/>
<path transform="translate(386,564)" d="m0 0 6 2 8 4-2 3-11-7z" fill="#A54300"/>
<path transform="translate(1473,309)" d="m0 0h2v3l-8 3h-4l-1 2-1-4 8-1z" fill="#FCCD6E"/>
<path transform="translate(973,860)" d="m0 0h1v13h-4l1-7z" fill="#330E01"/>
<path transform="translate(161,816)" d="m0 0 3 1-8 10-2-1 2-4z" fill="#381000"/>
<path transform="translate(1395,738)" d="m0 0 1 3-2 5-1 3-1-4-8-1v-1l7-1z" fill="#883400"/>
<path transform="translate(694,710)" d="m0 0h2l-1 5-2 6-1-2-4-2 1-2h2z" fill="#8B3500"/>
<path transform="translate(1056,647)" d="m0 0 3 1-4 4-3 2h-3l2-4z" fill="#A24200"/>
<path transform="translate(425,628)" d="m0 0 5 2 5 5-5-1-3-2-6-1z" fill="#F97301"/>
<path transform="translate(597,613)" d="m0 0 3 1 19 1v1l-24 1z" fill="#F0862E"/>
<path transform="translate(430,607)" d="m0 0h2l-1 5-3 6h-3l1-6h2v-2h2z" fill="#FCB957"/>
<path transform="translate(427,606)" d="m0 0h2l-1 6h-2v3h-3l1-6z" fill="#F97503"/>
<path transform="translate(171,361)" d="m0 0h4v13l-2-2z" fill="#9A3D00"/>
<path transform="translate(213,277)" d="m0 0 7 1 1 3h-10z" fill="#FED878"/>
<path transform="translate(1427,743)" d="m0 0 2 3-1 5 1 6h-2l-2-8z" fill="#BC5000"/>
<path transform="translate(1587,648)" d="m0 0h2l3 5v4h-3l-2-3z" fill="#F28A2D"/>
<path transform="translate(472,604)" d="m0 0h3l-1 5-5 8-1-2z" fill="#F89E34"/>
<path transform="translate(481,592)" d="m0 0v3l-4 5-3 1 2-8h3z" fill="#F0842B"/>
<path transform="translate(1167,298)" d="m0 0h8l2 5-5-1-5-3z" fill="#FA9B32"/>
<path transform="translate(1181,720)" d="m0 0 1 3-7 8-3 3 2-6 4-4 1-3z" fill="#5F2000"/>
<path transform="translate(178,641)" d="m0 0h1l1 8-5 10-1-2 3-8z" fill="#8B3500"/>
<path transform="translate(977,642)" d="m0 0 5 1v3l-4 2v-2l-4-1z" fill="#F0862E"/>
<path transform="translate(382,639)" d="m0 0h8l-5 4-4 2-1 2-1-2 1-3h2z" fill="#F28324"/>
<path transform="translate(426,597)" d="m0 0 1 3 2 1-6 5h-2l2-5z" fill="#F27203"/>
<path transform="translate(1177,406)" d="m0 0 9 1 1 3h-4l-1 2-1-4h-4z" fill="#FED378"/>
<path transform="translate(1235,354)" d="m0 0 7 4 3 3-4 1-6-5z" fill="#993D00"/>
<path transform="translate(1577,301)" d="m0 0 7 5v5h-2l-5-8z" fill="#FCCA6B"/>
<path transform="translate(853,880)" d="m0 0 2 1-6 9-1-2-2-1z" fill="#431300"/>
<path transform="translate(1314,727)" d="m0 0 1 2-8 13-1-3 7-11z" fill="#431300"/>
<path transform="translate(312,649)" d="m0 0h2v5l-2 2-4-1 2-4z" fill="#F9962D"/>
<path transform="translate(1e3 643)" d="m0 0 4 1-4 8h-2l1-6z" fill="#FA8F22"/>
<path transform="translate(987,639)" d="m0 0 2 1-6 8-2 3-2-1 2-4z" fill="#AB4700"/>
<path transform="translate(494,610)" d="m0 0 1 3-7 6-1-2 3-5z" fill="#F9AA3C"/>
<path transform="translate(1371,578)" d="m0 0 1 2-7 3-7 1 3-3z" fill="#F68E2A"/>
<path transform="translate(668,540)" d="m0 0 5 3h5l-1 4-2 2-5-5z" fill="#FABD54"/>
<path transform="translate(1018,404)" d="m0 0h10l-2 3-5-2-1 3h-3l-1-3z" fill="#FED478"/>
<path transform="translate(1309,224)" d="m0 0 6 1 2 1v2h-7l-3-1v-2z" fill="#F9BC5B"/>
<path transform="translate(1240,650)" d="m0 0 3 1-2 7h-3l1-7z" fill="#F7912B"/>
<path transform="translate(156,651)" d="m0 0 5 1-5 7h-1v-6z" fill="#F97301"/>
<path transform="translate(62,647)" d="m0 0h1v7h-7v-6l1 4 3-1z" fill="#F2892D"/>
<path transform="translate(1599,646)" d="m0 0h1v9l-4-1v-5h2z" fill="#F87302"/>
<path transform="translate(272,608)" d="m0 0h2l2 6-1 11h-1z" fill="#F58E2C"/>
<path transform="translate(403,607)" d="m0 0 6 1 3 2v3l-6-2-3-2z" fill="#953B00"/>
<path transform="translate(1405,395)" d="m0 0 4 2 8 7h-3l-7-4z" fill="#7D2F00"/>
<path transform="translate(4,312)" d="m0 0 7 2 1 2-7 1-2-3z" fill="#FED878"/>
<path transform="translate(195,269)" d="m0 0 16 3v1l-10 1v-2l-6-1z" fill="#FCBC54"/>
<path transform="translate(45,846)" d="m0 0 2 3 3 8-3 1-3-10z" fill="#381001"/>
<path transform="translate(158,726)" d="m0 0h2l1 5-1 4h-2l-1-2v-6z" fill="#320E01"/>
<path transform="translate(1031,647)" d="m0 0h1v7l-1 2-4-1v-5l4 1z" fill="#F37104"/>
<path transform="translate(151,647)" d="m0 0 2 2 1 4v8l-2-1z" fill="#431300"/>
<path transform="translate(1518,642)" d="m0 0h1v7l-2 5h-2l2-11z" fill="#F79029"/>
<path transform="translate(1456,601)" d="m0 0h1l-1 9h-2l-1-2v-6l3 1z" fill="#FBBC59"/>
<path transform="translate(531,573)" d="m0 0 2 1-9 7h-2l1-4z" fill="#A04000"/>
<path transform="translate(1339,354)" d="m0 0 9 4-1 2h-6z" fill="#FED878"/>
</svg>
